<svg width="70" height="70" viewBox="0 0 70 70" fill="none" xmlns="http://www.w3.org/2000/svg">
<g clip-path="url(#clip0_5_89)">
<path d="M37.5802 56.0051C29.1614 56.0051 21.932 50.9188 18.7759 43.6464L42.9798 33.0896L42.7166 32.5081L13.853 44.93L14.1462 45.596C14.1507 45.6065 14.1567 45.617 14.1612 45.6261L14.1687 45.6427C17.812 53.2586 25.7196 58.5377 34.8948 58.5377C45.2473 58.5377 54.7713 51.5214 57.5154 42.0268C54.6209 49.8506 46.3975 56.0036 37.5818 56.0036L37.5802 56.0051Z" fill="#383EBE"/>
<path d="M40.3424 52.9045C33.2618 52.9045 27.1811 48.6258 24.5272 42.5104L45.9525 33.1544L45.7314 32.6663L20.3862 43.5922L20.6328 44.1526C20.6373 44.1617 20.6418 44.1692 20.6449 44.1782L20.6509 44.1918C23.7153 50.5964 30.3658 55.0379 38.0825 55.0379C46.79 55.0379 54.8434 49.2751 57.2131 41.5251C54.7788 48.106 47.7568 52.9075 40.3424 52.9075V52.9045Z" fill="#383EBE"/>
<path d="M57.1394 40.5246C55.105 47.1778 48.7943 52.0291 41.3197 52.0291C34.6963 52.0291 29.1524 48.5744 26.5225 43.0768L26.518 43.0648C26.515 43.0572 26.5105 43.0512 26.5075 43.0437L26.2955 42.5616L49.4694 32.5547L49.5401 32.6903C50.0709 33.7419 51.2332 34.4922 52.7383 34.5434C55.2945 34.6308 56.4207 33.0835 56.4207 33.0835C56.4207 33.0835 58.3333 35.244 57.1394 40.5231V40.5246Z" fill="#383EBE"/>
<mask id="mask0_5_89" style="mask-type:luminance" maskUnits="userSpaceOnUse" x="11" y="11" width="45" height="34">
<path d="M55.7997 25.9272C52.3519 17.6152 44.1752 11.7681 34.6316 11.7681C21.9756 11.7681 11.7148 22.0492 11.7148 34.7303C11.7148 38.1684 11.8426 41.4271 13.1929 44.356L55.7997 25.9272Z" fill="white"/>
</mask>
<g mask="url(#mask0_5_89)">
<mask id="mask1_5_89" style="mask-type:luminance" maskUnits="userSpaceOnUse" x="11" y="11" width="48" height="48">
<path d="M35.1474 58.726C48.0888 58.726 58.5799 48.2141 58.5799 35.247C58.5799 22.28 48.0888 11.7681 35.1474 11.7681C22.2059 11.7681 11.7148 22.28 11.7148 35.247C11.7148 48.2141 22.2059 58.726 35.1474 58.726Z" fill="white"/>
</mask>
<g mask="url(#mask1_5_89)">
<path d="M32.8498 50.1684C32.8273 49.837 32.7792 48.8095 32.7145 47.3089L32.1085 22.7632H32.1055C32.1176 22.0567 32.1161 22.0521 32.0679 22.0039L32.0289 21.9647H32.0123L31.4906 21.555V20.7564L29.8651 19.7335H26.0188V20.66L25.4054 20.9674V21.9241L25.6249 22.2314V22.941L20.2855 23.2333V22.6744L19.6284 22.367V21.6303L19.1036 21.3229V20.77L18.5157 20.2306L16.8031 19.6431L11.9734 19.7335L10.7164 20.4461L10.76 21.454L10.0638 21.8472V22.9335H10.3691L9.79467 49.159L9.53455 49.3247L9.57514 50.1986L17.2542 50.7108V50.6506L17.1399 50.6927V49.6818L16.9565 49.6411L17.0422 40.8591C17.0422 40.8591 17.2316 35.4459 21.2313 33.3894C21.2313 33.3894 21.2779 33.4255 21.3531 33.4858C21.2854 33.5234 21.2193 33.5626 21.1531 33.6033C17.8917 35.5995 17.7293 40.1585 17.7293 40.1585L17.6511 48.1149L17.8165 48.1511V49.0671L20.8283 47.9733L20.7982 47.0844L21.0478 46.9247V48.4464L20.8479 48.5895L20.8734 49.3353L20.8629 49.0099L24.5889 46.3311L24.6325 46.3401L24.6641 46.2769L25.688 45.5401L25.7106 50.2573H25.4054V51.2427L30.3237 52.237L33.1085 50.9112V50.1699H32.8468L32.8498 50.1684ZM16.779 31.4217V26.4318C16.7911 26.361 17.0707 24.877 17.8616 24.5938L17.8797 24.5878L17.8962 24.5968C17.9068 24.6013 18.8796 25.1226 19.0841 26.4635L19.1969 31.4232H16.779V31.4217ZM19.9352 31.4217L19.9231 26.4439V26.4394C19.9412 26.3686 20.3456 24.7083 21.1351 24.4265L21.1546 24.419L21.1726 24.4296C21.1832 24.4356 22.2357 25.0849 22.4402 26.4243V31.4217H19.9367H19.9352ZM20.7922 46.881L20.5757 40.5457C20.5742 40.5081 20.3983 36.8711 22.5109 34.4862C25.5257 37.4979 25.6685 41.183 25.67 41.2222L25.682 43.69L25.673 43.7081L24.3243 44.585L24.2852 44.5759L24.2551 44.6286L22.7078 45.6336L22.6688 45.6245L22.6387 45.6788L20.7922 46.8795V46.881ZM21.3125 46.7515L22.4567 46.0087L21.3125 48.0607V46.7515ZM21.6328 48.0245L22.6868 46.1337L22.7725 47.2049L21.6343 48.0245H21.6328ZM22.9153 45.7089L24.0731 44.9571L23.0086 46.8765L22.9153 45.7104V45.7089ZM23.3604 46.7816L24.2987 45.0912L24.3679 46.0569L23.3604 46.7816ZM24.6129 45.7978L24.5302 44.6603L25.5136 44.0215L24.6129 45.7978ZM25.0099 45.5959L25.6835 44.2671L25.688 45.1093L25.0099 45.5974V45.5959ZM23.2642 31.4217V26.4318C23.2747 26.3625 23.5048 24.8785 24.4927 24.3L24.5122 24.2894L24.5333 24.2985C24.5438 24.303 25.6114 24.7896 25.858 26.352L25.9467 31.4232H23.2657L23.2642 31.4217ZM32.6062 44.8155L32.6889 46.768C32.6634 46.1744 32.6348 45.519 32.6062 44.8155Z" fill="#383EBE"/>
</g>
</g>
<path d="M35.1474 11.7681C29.7674 11.7681 24.8144 13.5896 20.8599 16.6434C21.323 16.4355 32.5416 11.5104 39.8913 20.0137C40.1003 18.9365 40.5845 17.9105 40.5845 17.9105C40.6236 18.2269 40.3995 18.7889 40.5319 19.6265C40.7424 20.9659 41.3784 21.7976 41.8866 22.581C42.0355 22.8115 42.2009 23.03 42.3768 23.2409L43.7466 24.871C43.7466 24.871 43.7466 24.871 43.7481 24.8725C43.7797 22.9667 44.3796 22.2661 44.3796 22.2661C44.3586 22.9139 44.509 23.732 44.6954 24.4748C45.0021 25.6951 45.6998 26.7814 46.6712 27.5799L46.8847 27.7562C46.9629 27.8195 47.0441 27.8797 47.1268 27.9355C47.1584 27.9566 47.1944 27.9837 47.232 28.0123C47.8756 28.4537 48.4846 28.7897 49.0559 29.0353C48.1598 27.5453 49.4123 26.2526 49.4123 26.2526C48.8966 28.4583 50.3551 29.5023 50.9655 29.5686C52.9218 29.8022 54.2931 28.9479 55.096 28.1961C55.096 28.1961 51.3896 20.4311 46.9629 17.6996C46.9629 17.6996 52.3925 20.4326 56.1185 29.3969C56.9786 31.256 57.1425 33.7254 57.1425 33.7254C57.559 34.7544 57.8462 34.9081 58.5829 35.247C58.5829 22.2797 48.0921 11.7681 35.1504 11.7681H35.1474Z" fill="#383EBE"/>
<path d="M9.03075 17.9844C8.95407 17.9738 8.8834 17.9799 8.81874 17.9994C8.75409 18.019 8.69394 18.0537 8.64131 18.1004C8.58718 18.1471 8.54207 18.1998 8.50448 18.2616C8.45486 18.3414 8.41577 18.4273 8.39021 18.5177C8.36314 18.6081 8.34961 18.6955 8.34961 18.7829C8.47742 18.7332 8.60823 18.7151 8.74506 18.7271C8.88189 18.7392 9.01271 18.7844 9.13902 18.8642L9.49237 19.0827L9.8788 18.456L9.26833 18.0778C9.18563 18.0266 9.10443 17.9949 9.02925 17.9844H9.03075Z" fill="#383EBE"/>
<path d="M8.703 19.4021C8.67443 19.396 8.64736 19.396 8.6203 19.4006C8.59323 19.4051 8.56918 19.4156 8.54662 19.4307C8.52407 19.4458 8.50602 19.4653 8.49099 19.4895C8.46091 19.5377 8.4564 19.5889 8.47445 19.6446C8.49249 19.7004 8.53008 19.7456 8.58722 19.7802L8.93155 19.9942L9.14056 19.6567L8.7872 19.4382C8.76014 19.4217 8.73307 19.4096 8.7045 19.4036L8.703 19.4021Z" fill="#383EBE"/>
<path d="M17.5563 10.2706L17.2376 9.83213C17.197 9.77488 17.1458 9.72968 17.0872 9.69202C17.0286 9.65435 16.9654 9.63175 16.8992 9.6197C16.8331 9.60765 16.7669 9.60765 16.7008 9.62121C16.6346 9.63477 16.573 9.66189 16.5173 9.70407C16.4602 9.74475 16.4166 9.79597 16.3835 9.85473C16.3504 9.91349 16.3294 9.97526 16.3188 10.0415C16.3098 10.1078 16.3128 10.1741 16.3294 10.2404C16.3459 10.3067 16.376 10.3715 16.4196 10.4303L16.7368 10.8657C16.7805 10.9259 16.8316 10.9741 16.8902 11.0103C16.9489 11.0465 17.012 11.0706 17.0767 11.0826C17.1413 11.0932 17.2075 11.0917 17.2736 11.0781C17.3398 11.0645 17.4015 11.0374 17.4571 10.9952C17.5142 10.9546 17.5578 10.9033 17.5909 10.8446C17.624 10.7858 17.645 10.7225 17.6541 10.6562C17.6631 10.5884 17.6586 10.5222 17.6435 10.4559C17.6285 10.3896 17.5984 10.3263 17.5563 10.269V10.2706Z" fill="#383EBE"/>
<path d="M11.6967 16.0046C11.6636 15.9444 11.6185 15.8931 11.5629 15.8479L11.1388 15.512C11.0832 15.4683 11.0231 15.4366 10.9569 15.4186C10.8907 15.399 10.8231 15.3929 10.7569 15.399C10.6893 15.405 10.6261 15.4246 10.566 15.4547C10.5058 15.4863 10.4532 15.53 10.4096 15.5843C10.366 15.64 10.3359 15.7003 10.3209 15.7651C10.3043 15.8314 10.3013 15.8961 10.3088 15.9624C10.3179 16.0287 10.3389 16.092 10.372 16.1523C10.4066 16.2125 10.4517 16.2653 10.5088 16.312L10.9313 16.6464C10.9885 16.6916 11.0516 16.7248 11.1193 16.7444C11.187 16.764 11.2531 16.77 11.3193 16.7624C11.3854 16.7549 11.4486 16.7368 11.5087 16.7052C11.5689 16.6751 11.62 16.6314 11.6636 16.5756C11.7072 16.5199 11.7373 16.4596 11.7538 16.3933C11.7704 16.327 11.7734 16.2607 11.7643 16.1929C11.7553 16.1267 11.7328 16.0619 11.6997 16.0031L11.6967 16.0046Z" fill="#383EBE"/>
<path d="M36.045 1.61663C35.9202 1.49912 35.7758 1.40872 35.6119 1.34394C35.448 1.28066 35.2706 1.24751 35.0796 1.24751C34.8541 1.24751 34.6526 1.28367 34.4782 1.35448C34.3038 1.42529 34.1564 1.52774 34.0361 1.65882C33.9173 1.78989 33.8256 1.94658 33.7609 2.12888C33.6963 2.31118 33.6647 2.51306 33.6647 2.73453C33.6647 2.87164 33.6933 3.00572 33.7489 3.13379C33.785 3.21665 33.8316 3.29349 33.8857 3.36882L32.5701 4.39783C32.4648 4.26525 32.3686 4.12664 32.2949 3.97447C32.0829 3.5481 31.9776 3.08557 31.9776 2.58387C31.9776 2.13641 32.0649 1.73113 32.2408 1.37105C32.4182 1.01098 32.6528 0.706641 32.9475 0.455037C33.161 0.272738 33.4016 0.12057 33.6647 -0.00146484C17.3699 0.617751 3.17711 12.6721 0.457047 29.4105C0.425471 29.6064 0.396902 29.8022 0.369836 29.9981C0.327735 32.0606 1.8028 33.8987 3.88983 34.2392C6.02499 34.5872 8.05188 33.2479 8.61424 31.2004C8.63529 31.0512 8.65634 30.9006 8.6819 30.7514C10.6622 18.5509 20.6463 9.61672 32.3806 8.45362C32.3551 8.43704 32.3295 8.42198 32.3054 8.4039C32.1791 8.31049 32.0769 8.19147 31.9987 8.04533C31.9205 7.89919 31.8814 7.72141 31.8814 7.51349C31.8814 7.37639 31.8995 7.25436 31.937 7.14739C31.9746 7.04042 32.0258 6.944 32.0934 6.85812C32.1596 6.77224 32.2363 6.69089 32.322 6.61857C32.4077 6.54474 32.4994 6.47243 32.5971 6.40162L32.7295 6.30218H32.7234L35.6435 3.99406C35.7503 3.90969 35.8495 3.81327 35.9457 3.70479C36.0405 3.59631 36.1262 3.48031 36.2013 3.35827C36.2765 3.23623 36.3367 3.10817 36.3803 2.97559C36.4239 2.84301 36.4464 2.70742 36.4464 2.56881C36.4464 2.37747 36.4103 2.2012 36.3397 2.03999C36.269 1.87878 36.1713 1.73867 36.0465 1.62115L36.045 1.61663ZM7.00686 30.4787C6.78131 31.8633 5.47616 32.8064 4.09583 32.5819C2.7155 32.3574 1.77573 31.0467 1.99977 29.6621C2.22532 28.2776 3.53047 27.3344 4.9108 27.5589C6.29113 27.7834 7.2309 29.0941 7.00686 30.4787ZM8.2654 24.9992C8.16014 25.1303 8.03685 25.2357 7.89851 25.3156C7.75867 25.3954 7.6053 25.4421 7.4369 25.4587C7.26849 25.4738 7.09106 25.4451 6.90311 25.3713L5.13634 24.6722L5.38294 24.0455L7.1497 24.7446C7.2324 24.7777 7.3121 24.7883 7.38728 24.7777C7.46246 24.7672 7.53313 24.7416 7.59779 24.6994C7.66244 24.6572 7.71958 24.6044 7.7707 24.5382C7.82183 24.4719 7.86092 24.4011 7.89099 24.3242C7.92257 24.2459 7.94212 24.1645 7.94964 24.0817C7.95866 23.9988 7.95264 23.9189 7.9331 23.8451C7.91355 23.7698 7.87897 23.702 7.83085 23.6417C7.78273 23.5815 7.71657 23.5348 7.63387 23.5016C7.55719 23.4715 7.48952 23.4624 7.43088 23.4745C7.37224 23.4865 7.33164 23.5212 7.30909 23.58L6.99032 24.3875L5.89117 23.9521C5.77839 23.9069 5.68216 23.8436 5.59946 23.7607C5.51676 23.6779 5.45361 23.586 5.4085 23.482C5.36339 23.3796 5.33933 23.2696 5.33482 23.1536C5.33031 23.0376 5.35136 22.9231 5.39497 22.8101L5.6566 22.1472L6.28211 22.3943L6.02048 23.0572C5.99943 23.1114 5.99943 23.1641 6.02048 23.2154C6.04303 23.2681 6.08062 23.3042 6.13626 23.3268L6.61291 23.5152L6.68508 23.3314C6.73771 23.1988 6.80387 23.0918 6.88657 23.0074C6.96927 22.9246 7.06099 22.8628 7.16624 22.8267C7.27 22.789 7.38277 22.7754 7.50456 22.783C7.62485 22.7905 7.75116 22.8206 7.88197 22.8734C8.06993 22.9472 8.21879 23.0481 8.33156 23.1762C8.44433 23.3042 8.52402 23.4444 8.57214 23.598C8.62025 23.7517 8.6383 23.9129 8.62627 24.0817C8.61424 24.2504 8.57815 24.4131 8.515 24.5698C8.45335 24.725 8.37065 24.8681 8.2654 24.9992ZM9.23674 25.2975C9.2187 25.3412 9.19464 25.3788 9.16306 25.412C9.13149 25.4436 9.0954 25.4692 9.05631 25.4858C9.01721 25.5024 8.97361 25.5129 8.9285 25.5144C8.88339 25.5159 8.83828 25.5084 8.79468 25.4918C8.75107 25.4738 8.71348 25.4497 8.6819 25.4165C8.65033 25.3849 8.62627 25.3487 8.60823 25.308C8.59169 25.2689 8.58116 25.2252 8.58116 25.1815C8.58116 25.1363 8.58868 25.0926 8.60522 25.0489C8.62176 25.0052 8.64732 24.9675 8.6789 24.9344C8.71047 24.9028 8.74656 24.8771 8.78565 24.8606C8.82475 24.844 8.86835 24.8335 8.91346 24.8319C8.95857 24.8304 9.00368 24.838 9.04729 24.8545C9.09089 24.8711 9.12848 24.8967 9.16006 24.9284C9.19163 24.96 9.21569 24.9962 9.23374 25.0368C9.25028 25.076 9.2608 25.1197 9.2608 25.1634C9.2608 25.2086 9.25328 25.2523 9.23674 25.296V25.2975ZM9.53446 24.5442C9.51642 24.5879 9.49236 24.6255 9.46078 24.6587C9.42921 24.6903 9.39312 24.7159 9.35403 24.7325C9.31493 24.7491 9.27133 24.7596 9.22622 24.7611C9.18111 24.7626 9.136 24.7551 9.09239 24.7385C9.04879 24.7205 9.0112 24.6964 8.97962 24.6632C8.94805 24.6301 8.92399 24.5954 8.90594 24.5547C8.8894 24.5156 8.87888 24.4719 8.87888 24.4282C8.87888 24.383 8.8864 24.3393 8.90294 24.2956C8.91948 24.2519 8.94504 24.2142 8.97661 24.1811C9.00819 24.1495 9.04428 24.1238 9.08337 24.1073C9.12247 24.0907 9.16607 24.0801 9.20968 24.0801C9.25479 24.0801 9.29839 24.0877 9.342 24.1043C9.3856 24.1208 9.42319 24.1464 9.45627 24.1781C9.48935 24.2097 9.51341 24.2459 9.52995 24.285C9.54649 24.3242 9.55702 24.3679 9.55702 24.4116C9.55702 24.4568 9.5495 24.5005 9.53296 24.5442H9.53446ZM12.3959 16.5742C12.3583 16.7264 12.2891 16.8665 12.1884 16.9946C11.9854 17.2522 11.7313 17.3953 11.4275 17.4255L11.1854 17.7328C11.1133 17.8232 11.0471 17.9181 10.987 18.0176L9.1766 20.9404C9.11194 21.0443 9.0533 21.1513 8.99917 21.2598L8.84279 21.5777C8.89843 21.6289 8.95256 21.6922 9.0097 21.769C9.06683 21.8459 9.11495 21.9393 9.16006 22.0507C9.20366 22.1622 9.23674 22.2918 9.2593 22.4395C9.28185 22.5871 9.28636 22.7573 9.27433 22.9487L8.60672 22.905C8.61123 22.8116 8.61123 22.7272 8.60522 22.6504C8.5992 22.5735 8.58868 22.5057 8.57515 22.4455C8.56011 22.3852 8.54357 22.3325 8.52402 22.2873C8.50448 22.2421 8.48342 22.2029 8.46087 22.1683C8.40975 22.0899 8.3496 22.0327 8.28344 21.995L6.22798 20.975L6.5257 20.3709L8.2654 21.2342L8.48042 20.7973L8.57665 20.5667L8.23232 20.3528C8.1436 20.2971 8.06692 20.2323 8.00377 20.1554C7.94061 20.0786 7.8925 19.9972 7.85791 19.9099C7.82333 19.8225 7.80228 19.7321 7.79627 19.6372C7.79025 19.5438 7.79927 19.4503 7.82483 19.3584C7.7692 19.256 7.73011 19.143 7.71056 19.0195C7.69101 18.8959 7.685 18.7709 7.69552 18.6428C7.70605 18.5147 7.73161 18.3882 7.77371 18.2616C7.81431 18.1351 7.86994 18.0176 7.93761 17.9061C8.02181 17.7705 8.12105 17.6515 8.23833 17.549C8.35562 17.4466 8.48493 17.3727 8.62777 17.3275C8.77062 17.2823 8.927 17.2718 9.0939 17.2944C9.26231 17.3185 9.43823 17.3878 9.62468 17.5023L10.2352 17.8805L10.4802 17.543L10.6877 17.2808C10.6562 17.2643 10.6276 17.2462 10.6005 17.2266C10.5735 17.207 10.5479 17.1859 10.5208 17.1648L10.0983 16.8304C9.96901 16.7279 9.86676 16.6074 9.79008 16.4688C9.71339 16.3302 9.66678 16.1855 9.64723 16.0334C9.62769 15.8812 9.63671 15.7305 9.6758 15.5799C9.7149 15.4292 9.78406 15.2891 9.88481 15.161C9.98555 15.033 10.1058 14.9335 10.2457 14.8612C10.3855 14.7889 10.5314 14.7467 10.6847 14.7301C10.8381 14.7136 10.99 14.7271 11.1403 14.7693C11.2922 14.8115 11.4305 14.8808 11.5553 14.9802L11.9794 15.3162C12.1057 15.4157 12.2064 15.5347 12.2816 15.6733C12.3568 15.8119 12.4049 15.9565 12.4259 16.1087C12.447 16.2609 12.438 16.413 12.4004 16.5667L12.3959 16.5742ZM16.0106 13.7734C15.9911 13.8141 15.9625 13.8488 15.9264 13.8804C15.8903 13.9105 15.8512 13.9331 15.8091 13.9467C15.767 13.9603 15.7234 13.9648 15.6798 13.9618C15.6362 13.9588 15.5956 13.9467 15.555 13.9271C15.5144 13.9075 15.4798 13.8789 15.4482 13.8443C15.4182 13.8081 15.3956 13.7689 15.3821 13.7267C15.3685 13.6846 15.364 13.6409 15.367 13.5972C15.3701 13.5535 15.3821 13.5128 15.4016 13.4721C15.4212 13.4314 15.4497 13.3968 15.4858 13.3652C15.5219 13.3335 15.561 13.3124 15.6031 13.2989C15.6452 13.2853 15.6888 13.2808 15.7324 13.2838C15.776 13.2868 15.8181 13.2989 15.8587 13.3169C15.8993 13.3365 15.9354 13.3637 15.9655 13.3998C15.9956 13.436 16.0181 13.4751 16.0316 13.5188C16.0452 13.5625 16.0497 13.6047 16.0467 13.6484C16.0437 13.6921 16.0316 13.7328 16.0121 13.7734H16.0106ZM16.6241 13.2446C16.6045 13.2853 16.576 13.32 16.5399 13.3516C16.5038 13.3832 16.4647 13.4043 16.4226 13.4179C16.3805 13.4314 16.3369 13.436 16.2933 13.433C16.2497 13.4299 16.2091 13.4179 16.1685 13.3983C16.1279 13.3787 16.0933 13.3501 16.0617 13.3139C16.0316 13.2778 16.0091 13.2386 15.9956 13.1964C15.982 13.1542 15.9775 13.1105 15.9805 13.0668C15.9835 13.0232 15.9956 12.9825 16.0151 12.9418C16.0347 12.9011 16.0632 12.8665 16.0978 12.8348C16.1339 12.8047 16.173 12.7821 16.2151 12.7685C16.2572 12.755 16.3008 12.7505 16.3444 12.7535C16.388 12.7565 16.4286 12.7685 16.4692 12.7881C16.5098 12.8077 16.5444 12.8363 16.576 12.8725C16.6075 12.9087 16.6286 12.9478 16.6421 12.99C16.6557 13.0322 16.6602 13.0759 16.6572 13.1196C16.6542 13.1633 16.6421 13.204 16.6226 13.2446H16.6241ZM22.0221 8.35117C21.986 8.45663 21.9289 8.55456 21.8537 8.64194C21.7785 8.72933 21.6868 8.80014 21.5785 8.85437L21.2868 8.9975L19.1727 10.1953C19.057 10.26 18.9472 10.3324 18.8404 10.4107L18.3112 10.7979C18.2871 10.9455 18.236 11.0842 18.1593 11.2107C18.0826 11.3388 17.9804 11.4488 17.851 11.5437C17.5894 11.735 17.3067 11.8043 17.0015 11.7531L16.5594 12.0951L15.3685 13.091C15.2949 13.1527 15.2227 13.2175 15.155 13.2853L13.5311 14.9004L13.059 14.4243L13.9657 13.5234L13.4589 13.0111C13.3958 12.9478 13.3251 12.9071 13.2469 12.8891C13.1687 12.871 13.08 12.877 12.9823 12.9102C12.8845 12.9433 12.7748 13.0006 12.656 13.0849C12.5357 13.1693 12.4049 13.2838 12.2605 13.4269L11.7884 12.9508C12.017 12.7233 12.232 12.5471 12.432 12.4235C12.6319 12.3 12.8214 12.2231 12.9973 12.193C13.1732 12.1629 13.3401 12.178 13.4935 12.2382C13.6484 12.2985 13.7957 12.3994 13.9341 12.5395L14.4408 13.0518L14.7851 12.7083L15.2227 12.3045L13.9792 10.8687L14.4874 10.4318L15.7535 11.9068L16.1234 11.5874L16.3234 11.4201C16.2993 11.396 16.2767 11.3719 16.2557 11.3448C16.2346 11.3192 16.2136 11.2921 16.1925 11.2634L15.8753 10.828C15.779 10.6954 15.7114 10.5508 15.6753 10.3971C15.6392 10.2435 15.6317 10.0898 15.6542 9.93913C15.6768 9.78696 15.7264 9.64384 15.8031 9.50975C15.8813 9.37566 15.985 9.25965 16.1174 9.16323C16.2482 9.06831 16.3895 9.00504 16.5444 8.9734C16.6993 8.94176 16.8526 8.93874 17.003 8.96586C17.1549 8.99148 17.2977 9.04571 17.4315 9.12707C17.5669 9.20843 17.6811 9.31238 17.7744 9.44195L18.0931 9.88037C18.1157 9.909 18.1367 9.93612 18.1533 9.96324C18.1698 9.99036 18.1863 10.019 18.1999 10.0491L18.4856 9.8397C18.5638 9.78244 18.645 9.72971 18.7292 9.6815L20.1817 8.84684L19.8178 8.22461C19.7637 8.1312 19.705 8.06039 19.6434 8.01369C19.5817 7.96698 19.5186 7.93685 19.4554 7.9263C19.3923 7.91425 19.3291 7.91726 19.2675 7.93384C19.2058 7.95041 19.1472 7.97452 19.0915 8.00766C19.0314 8.04382 18.9712 8.08751 18.9111 8.14024C18.851 8.19448 18.7938 8.24872 18.7382 8.30597C18.6841 8.36322 18.6344 8.42047 18.5908 8.47622C18.5472 8.53196 18.5126 8.58017 18.4871 8.61934L17.9352 8.24119C17.9683 8.19147 18.0149 8.1297 18.0721 8.05738C18.1307 7.98506 18.1954 7.90973 18.2675 7.83289C18.3397 7.75606 18.4179 7.68073 18.5006 7.60992C18.5833 7.5376 18.6675 7.47733 18.7517 7.42762C18.8795 7.35229 19.0149 7.29504 19.1547 7.25436C19.296 7.21368 19.4374 7.20464 19.5787 7.22874C19.7216 7.25134 19.8614 7.31462 19.9997 7.41858C20.1381 7.52103 20.2689 7.67771 20.3907 7.88864L20.7545 8.51087L20.9846 8.40088L21.2763 8.25776C21.3274 8.23215 21.3635 8.19297 21.3816 8.14175C21.3996 8.08902 21.3966 8.03779 21.3725 7.98807L20.1922 5.58052L20.7936 5.28522L21.974 7.69278C22.0266 7.79975 22.0552 7.91124 22.0612 8.02725C22.0672 8.14326 22.0522 8.25324 22.0146 8.36021L22.0221 8.35117ZM22.8281 8.25324L21.4026 4.99897L22.0161 4.72928L23.4415 7.98355L22.8281 8.25324ZM28.1133 7.19259C28.1058 7.23628 28.0923 7.27696 28.0697 7.31462C28.0472 7.35229 28.0186 7.38392 27.984 7.41255C27.9479 7.44118 27.9073 7.46076 27.8622 7.47131C27.8156 7.48336 27.7705 7.48487 27.7269 7.47733C27.6818 7.4698 27.6412 7.45474 27.6051 7.43214C27.569 7.40954 27.5359 7.38091 27.5089 7.34475C27.4818 7.30859 27.4622 7.26792 27.4502 7.22272C27.4382 7.17601 27.4367 7.13232 27.4427 7.08863C27.4487 7.04494 27.4637 7.00426 27.4863 6.9681C27.5089 6.93044 27.5374 6.8988 27.5735 6.87168C27.6096 6.84456 27.6502 6.82497 27.6953 6.81292C27.7419 6.80087 27.7855 6.79936 27.8306 6.80539C27.8742 6.81141 27.9148 6.82648 27.9524 6.84908C27.99 6.87168 28.0216 6.9003 28.0487 6.93496C28.0757 6.96961 28.0953 7.01029 28.1058 7.05548C28.1178 7.10068 28.1193 7.14588 28.1133 7.19108V7.19259ZM28.6411 6.31273C28.6215 6.31574 28.6035 6.32026 28.5855 6.32478L27.0217 6.69691C26.9886 6.70445 26.957 6.71348 26.9254 6.72403L24.6655 7.47733L24.4535 6.84004L25.6654 6.43627L25.4384 5.75227C25.4098 5.6679 25.3647 5.5986 25.303 5.54737C25.2414 5.49615 25.1587 5.463 25.0564 5.44793C24.9542 5.43287 24.8309 5.43588 24.6865 5.45848C24.5422 5.48108 24.3723 5.52477 24.1798 5.58805L23.9678 4.95075C24.273 4.8483 24.5437 4.78653 24.7783 4.76544C25.0128 4.74435 25.2158 4.75942 25.3872 4.81064C25.5586 4.86186 25.7 4.94925 25.8128 5.07279C25.924 5.19482 26.0112 5.35151 26.0744 5.53833L26.3014 6.22233L26.7631 6.06866L27.3179 5.91498L26.8488 4.06487L27.4983 3.89914L27.9705 5.76282L28.4501 5.66489L28.6937 5.61215L28.5614 4.85734C28.5328 4.70367 28.5328 4.55753 28.5614 4.41591C28.5915 4.27579 28.6426 4.14623 28.7148 4.03022C28.7884 3.91421 28.8787 3.81327 28.9899 3.72588C29.1012 3.6385 29.22 3.57371 29.3523 3.53002C29.4831 3.48483 29.6215 3.46373 29.7673 3.46675C29.9132 3.46825 30.059 3.49989 30.2049 3.55865L30.0485 4.20649C29.9387 4.15677 29.8305 4.13417 29.7267 4.1402C29.623 4.14623 29.5297 4.17334 29.45 4.22306C29.3703 4.27278 29.3102 4.34208 29.2666 4.43248C29.223 4.52137 29.208 4.62382 29.2215 4.73983L29.3538 5.49464L30.7296 5.25208L30.8454 5.91348L28.6396 6.30971L28.6411 6.31273Z" fill="#383EBE"/>
<path d="M62.4909 22.0989C62.56 22.1049 62.6307 22.1034 62.6999 22.0944C62.8051 22.0823 62.8953 22.0582 62.969 22.022C63.0066 22.004 63.0382 21.9783 63.0637 21.9467C63.0893 21.9151 63.1058 21.8759 63.1134 21.8277C63.1209 21.781 63.1179 21.7237 63.1043 21.6574C63.0908 21.5911 63.0637 21.5158 63.0231 21.4314C62.9825 21.3471 62.9419 21.2808 62.8998 21.2296C62.8577 21.1783 62.8171 21.1407 62.775 21.1166C62.7344 21.0925 62.6938 21.0804 62.6548 21.0819C62.6157 21.0819 62.5766 21.091 62.5405 21.109C62.5014 21.1286 62.4608 21.1527 62.4172 21.1844C62.3751 21.216 62.336 21.2507 62.3029 21.2883C62.2533 21.3395 62.2097 21.3938 62.1721 21.4525C62.1345 21.5113 62.0999 21.5701 62.0698 21.6303C62.0398 21.6906 62.0142 21.7493 61.9917 21.8081C61.9691 21.8669 61.9526 21.9196 61.939 21.9663C61.9856 21.9844 62.0383 22.004 62.0969 22.022C62.1571 22.0416 62.2202 22.0567 62.2864 22.0687C62.3525 22.0808 62.4202 22.0898 62.4909 22.0959V22.0989Z" fill="#383EBE"/>
<path d="M57.174 13.0894C57.1244 13.0397 57.0688 13.002 57.0071 12.9764C56.9455 12.9508 56.8823 12.9373 56.8177 12.9373C56.753 12.9373 56.6899 12.9478 56.6267 12.9719C56.5651 12.996 56.5079 13.0337 56.4568 13.0834L55.9125 13.6213L56.4793 14.1998C56.5199 14.2405 56.5681 14.2631 56.6222 14.2646C56.6763 14.2661 56.7259 14.245 56.771 14.2013L57.177 13.8005C57.2266 13.7538 57.2642 13.6996 57.2883 13.6378C57.3124 13.5761 57.3244 13.5143 57.3244 13.4495C57.3244 13.3847 57.3109 13.3214 57.2853 13.2597C57.2597 13.1979 57.2221 13.1406 57.174 13.0909V13.0894Z" fill="#383EBE"/>
<path d="M49.1476 7.19097C49.1085 7.14879 49.0619 7.11413 49.0078 7.08852C48.9386 7.05387 48.8634 7.02675 48.7837 7.00566C48.704 6.98457 48.6229 6.97101 48.5402 6.96347C48.4575 6.95594 48.3778 6.95745 48.2996 6.96347C48.2214 6.9695 48.1492 6.98306 48.083 7.00265C48.0169 7.02223 47.9582 7.04935 47.9101 7.0825C47.862 7.11564 47.8259 7.15632 47.8019 7.20303L47.5207 7.77102L48.8439 8.4279L49.1627 7.78458C49.2078 7.69418 49.2348 7.61132 49.2454 7.53749C49.2559 7.46367 49.2514 7.39888 49.2348 7.34163C49.2168 7.28438 49.1882 7.23466 49.1491 7.19248L49.1476 7.19097Z" fill="#383EBE"/>
<path d="M62.8682 25.1091C62.9164 25.1588 62.9705 25.1965 63.0321 25.2236C63.0938 25.2507 63.1584 25.2658 63.2276 25.2688C63.2953 25.2718 63.3629 25.2613 63.4306 25.2372L63.9388 25.0534C64.005 25.0293 64.0636 24.9946 64.1148 24.9479C64.1659 24.9012 64.2065 24.8485 64.2365 24.7867C64.2666 24.7264 64.2847 24.6617 64.2892 24.5939C64.2937 24.5261 64.2847 24.4583 64.2606 24.392C64.2365 24.3257 64.202 24.2684 64.1539 24.2202C64.1072 24.172 64.0531 24.1343 63.993 24.1072C63.9328 24.0801 63.8682 24.065 63.799 24.062C63.7298 24.059 63.6607 24.0696 63.5915 24.0952L63.0848 24.279C63.0156 24.3046 62.9555 24.3407 62.9028 24.3874C62.8502 24.4342 62.8111 24.4869 62.7825 24.5471C62.754 24.6074 62.7374 24.6707 62.7314 24.7385C62.7254 24.8063 62.7344 24.8726 62.7585 24.9389C62.7825 25.0052 62.8186 25.0624 62.8652 25.1121L62.8682 25.1091Z" fill="#383EBE"/>
<path d="M40.6235 0.432387C39.2763 0.212422 37.935 0.0768273 36.6028 0.0135498C36.8479 0.143118 37.0705 0.301312 37.2659 0.491144C37.5321 0.748774 37.7426 1.05311 37.896 1.40566C38.0493 1.7582 38.126 2.13937 38.1275 2.54766C38.1275 2.92432 38.0749 3.2633 37.9666 3.56312C37.8584 3.86293 37.711 4.13713 37.5261 4.38573C37.3411 4.63432 37.1276 4.86784 36.8855 5.08328C36.6449 5.29873 36.3908 5.51116 36.1262 5.72058L34.4075 7.06749L38.0959 7.06146L38.0989 8.5063C38.4944 8.553 38.8914 8.60724 39.2883 8.67202C52.221 10.7813 61.4774 21.9362 61.6683 34.6294C63.0231 33.6742 64.7342 33.2282 66.4935 33.5145C67.8678 33.739 69.0722 34.3793 70.0015 35.2847C70.1278 18.3008 57.8657 3.24372 40.6265 0.432387H40.6235ZM61.5691 16.0077C61.6112 16.0152 61.6533 16.0303 61.6909 16.0529C61.7285 16.0755 61.7631 16.1071 61.7901 16.1448C61.8172 16.184 61.8352 16.2246 61.8443 16.2683C61.8533 16.312 61.8533 16.3557 61.8458 16.3979C61.8383 16.4401 61.8232 16.4808 61.8007 16.5199C61.7781 16.5591 61.7465 16.5908 61.7089 16.6194C61.6698 16.6465 61.6292 16.6661 61.5856 16.6751C61.542 16.6842 61.4984 16.6857 61.4563 16.6796C61.4142 16.6721 61.3736 16.657 61.336 16.6344C61.2985 16.6118 61.2654 16.5817 61.2383 16.5425C61.2112 16.5034 61.1917 16.4627 61.1827 16.419C61.1736 16.3753 61.1721 16.3316 61.1782 16.2894C61.1842 16.2472 61.2007 16.2051 61.2233 16.1674C61.2458 16.1282 61.2774 16.0951 61.315 16.068C61.3541 16.0408 61.3947 16.0228 61.4383 16.0137C61.4819 16.0047 61.5255 16.0032 61.5691 16.0107V16.0077ZM60.7075 15.6295C60.715 15.5874 60.7301 15.5467 60.7526 15.5075C60.7752 15.4698 60.8068 15.4367 60.8444 15.4081C60.8834 15.3809 60.924 15.3614 60.9677 15.3523C61.0113 15.3433 61.0549 15.3418 61.097 15.3478C61.1391 15.3553 61.1812 15.3704 61.2188 15.393C61.2564 15.4156 61.2909 15.4457 61.318 15.4849C61.3451 15.5241 61.3646 15.5648 61.3736 15.6084C61.3827 15.6521 61.3842 15.6958 61.3766 15.7395C61.3691 15.7817 61.3541 15.8224 61.3315 15.8616C61.309 15.8992 61.2774 15.9324 61.2398 15.961C61.2007 15.9881 61.1601 16.0077 61.1165 16.0167C61.0729 16.0258 61.0293 16.0273 60.9872 16.0213C60.9451 16.0137 60.9045 15.9987 60.8654 15.9761C60.8263 15.9535 60.7947 15.9218 60.7662 15.8826C60.7391 15.8435 60.7196 15.8028 60.7105 15.7591C60.7015 15.7154 60.7 15.6717 60.706 15.6295H60.7075ZM57.4792 11.7847C57.4958 11.7425 57.5213 11.7048 57.5544 11.6717C57.5875 11.6385 57.6266 11.6144 57.6687 11.5979C57.7108 11.5828 57.7529 11.5738 57.7965 11.5753C57.8401 11.5768 57.8822 11.5843 57.9243 11.6009C57.9664 11.6174 58.004 11.6431 58.0371 11.6762C58.0702 11.7093 58.0942 11.7485 58.1108 11.7907C58.1273 11.8329 58.1348 11.8766 58.1333 11.9188C58.1333 11.9625 58.1243 12.0046 58.1077 12.0453C58.0912 12.0875 58.0656 12.1237 58.0311 12.1568C57.9965 12.19 57.9604 12.2156 57.9183 12.2306C57.8762 12.2472 57.8341 12.2547 57.7905 12.2547C57.7469 12.2547 57.7048 12.2457 57.6642 12.2291C57.6221 12.2126 57.586 12.1869 57.5529 12.1523C57.5198 12.1191 57.4943 12.0815 57.4792 12.0393C57.4627 11.9971 57.4552 11.9549 57.4552 11.9112C57.4552 11.8675 57.4642 11.8254 57.4807 11.7832L57.4792 11.7847ZM51.4632 7.15186C51.4692 7.10816 51.4858 7.06447 51.5098 7.0253C51.5339 6.98462 51.5655 6.95148 51.6015 6.92587C51.6376 6.90025 51.6767 6.88217 51.7188 6.87163C51.7609 6.86108 51.8045 6.85957 51.8496 6.8656C51.8947 6.87163 51.9368 6.88669 51.9774 6.9108C52.018 6.9349 52.0511 6.96654 52.0767 7.00421C52.1022 7.04187 52.1203 7.08105 52.1308 7.12323C52.1413 7.16542 52.1428 7.20911 52.1368 7.2528C52.1308 7.29649 52.1143 7.34018 52.0902 7.37935C52.0662 7.42003 52.0346 7.45318 51.9985 7.47879C51.9624 7.5044 51.9233 7.52248 51.8812 7.53303C51.8391 7.54357 51.7955 7.54508 51.7519 7.53905C51.7083 7.53303 51.6647 7.51646 51.6256 7.49235C51.585 7.46824 51.5519 7.4366 51.5264 7.40045C51.5008 7.36429 51.4828 7.32512 51.4722 7.28293C51.4617 7.24075 51.4602 7.19705 51.4662 7.15336L51.4632 7.15186ZM43.4744 3.59626C43.488 3.55106 43.5075 3.51039 43.5361 3.47573C43.5646 3.44108 43.5977 3.41246 43.6353 3.39136C43.6729 3.37027 43.715 3.35671 43.7586 3.35069C43.8037 3.34466 43.8488 3.34767 43.8939 3.36123C43.939 3.37479 43.9796 3.39588 44.0142 3.42451C44.0488 3.45313 44.0759 3.48779 44.0969 3.52545C44.118 3.56312 44.1315 3.6053 44.1375 3.64899C44.1435 3.69419 44.139 3.73788 44.127 3.78459C44.115 3.83129 44.0939 3.87047 44.0653 3.90512C44.0368 3.93977 44.0037 3.96839 43.9661 3.98949C43.9285 4.01058 43.8864 4.02414 43.8428 4.03017C43.7992 4.03619 43.7541 4.03167 43.7075 4.01962C43.6624 4.00606 43.6218 3.98647 43.5872 3.95785C43.5526 3.92922 43.524 3.89608 43.503 3.85841C43.4819 3.82075 43.4684 3.77856 43.4624 3.73487C43.4564 3.69118 43.4609 3.64598 43.4729 3.59928L43.4744 3.59626ZM41.3287 3.08854C41.3378 3.04183 41.3558 3.00115 41.3814 2.96349C41.4069 2.92733 41.4385 2.89569 41.4746 2.87158C41.5107 2.84748 41.5513 2.83091 41.5949 2.82036C41.6385 2.80981 41.6836 2.80981 41.7302 2.82036C41.7768 2.8294 41.8174 2.84748 41.8535 2.87309C41.8896 2.8987 41.9197 2.93034 41.9437 2.9665C41.9678 3.00266 41.9843 3.04334 41.9933 3.08703C42.0024 3.13072 42.0024 3.17592 41.9933 3.22262C41.9843 3.26933 41.9663 3.31151 41.9407 3.34767C41.9152 3.38534 41.8851 3.41547 41.849 3.43958C41.8129 3.46368 41.7738 3.48025 41.7302 3.48929C41.6866 3.49833 41.643 3.49833 41.5964 3.48929C41.5498 3.48025 41.5077 3.46217 41.4716 3.43807C41.4355 3.41396 41.4039 3.38232 41.3799 3.34617C41.3558 3.31001 41.3393 3.26933 41.3287 3.22564C41.3182 3.18195 41.3182 3.13675 41.3287 3.09004V3.08854ZM40.5378 2.92884C40.5469 2.88213 40.5649 2.83995 40.589 2.80379C40.6145 2.76612 40.6446 2.73599 40.6807 2.71188C40.7168 2.68778 40.7574 2.67121 40.801 2.66066C40.8446 2.65011 40.8897 2.65011 40.9363 2.66066C40.9829 2.6697 41.0235 2.68778 41.0611 2.71339C41.0972 2.739 41.1288 2.77064 41.1528 2.8068C41.1769 2.84296 41.1934 2.88364 41.2024 2.92733C41.2115 2.97102 41.2115 3.01622 41.2024 3.06292C41.1934 3.10963 41.1754 3.15181 41.1513 3.18797C41.1257 3.22564 41.0957 3.25577 41.0596 3.27988C41.0235 3.30398 40.9829 3.32055 40.9393 3.32959C40.8957 3.33863 40.8506 3.33863 40.804 3.32959C40.7574 3.32055 40.7153 3.30247 40.6792 3.27837C40.6431 3.25426 40.6115 3.22262 40.5874 3.18647C40.5634 3.15031 40.5469 3.10963 40.5378 3.06594C40.5288 3.02225 40.5288 2.97705 40.5378 2.93034V2.92884ZM44.0714 7.76203C44.0563 7.80723 44.0323 7.8449 44.0022 7.87804C43.9721 7.91119 43.936 7.9368 43.8969 7.95488C43.8578 7.97296 43.8157 7.98501 43.7721 7.98802C43.7285 7.99104 43.6834 7.98501 43.6383 7.96844C43.5932 7.95337 43.5541 7.92927 43.521 7.89913C43.488 7.869 43.4624 7.83435 43.4428 7.79518C43.4248 7.75601 43.4128 7.71382 43.4098 7.67013C43.4068 7.62493 43.4128 7.58124 43.4293 7.53604C43.4443 7.49084 43.4684 7.45167 43.4985 7.41853C43.5286 7.38538 43.5631 7.35977 43.6022 7.34018C43.6413 7.3206 43.6834 7.31005 43.7285 7.30704C43.7736 7.30402 43.8172 7.31005 43.8624 7.32662C43.9075 7.3432 43.9466 7.36579 43.9796 7.39593C44.0127 7.42606 44.0383 7.46071 44.0578 7.49988C44.0774 7.53905 44.0879 7.58124 44.0924 7.62644C44.0969 7.67164 44.0909 7.71683 44.0744 7.76053L44.0714 7.76203ZM44.8322 8.0287C44.8172 8.0739 44.7931 8.11307 44.763 8.14622C44.733 8.17936 44.6984 8.20498 44.6593 8.22456C44.6202 8.24415 44.5781 8.25469 44.5345 8.25771C44.4909 8.26072 44.4458 8.25469 44.4007 8.23812C44.3555 8.22305 44.318 8.19895 44.2834 8.16882C44.2503 8.13868 44.2247 8.10403 44.2052 8.06486C44.1856 8.02569 44.1751 7.9835 44.1721 7.93981C44.1691 7.89612 44.1751 7.85092 44.1917 7.80572C44.2067 7.76053 44.2307 7.72135 44.2608 7.68821C44.2909 7.65506 44.3255 7.62945 44.3646 7.60986C44.4037 7.59028 44.4458 7.57973 44.4909 7.57672C44.536 7.57371 44.5796 7.57973 44.6247 7.59631C44.6698 7.61288 44.7089 7.63548 44.742 7.66561C44.7751 7.69574 44.8006 7.73039 44.8202 7.76957C44.8397 7.80874 44.8502 7.85092 44.8532 7.89461C44.8563 7.93831 44.8502 7.9835 44.8337 8.0287H44.8322ZM57.9063 13.8909C57.8476 14.034 57.7619 14.1621 57.6461 14.2766L57.2402 14.6774C57.1469 14.7693 57.0447 14.8371 56.9364 14.8823C56.8267 14.926 56.7169 14.9455 56.6071 14.9425C56.4974 14.9395 56.3891 14.9139 56.2853 14.8687C56.1816 14.822 56.0869 14.7557 56.0012 14.6698L54.6223 13.2672L54.0434 12.7293C54.0134 12.7022 53.9833 12.6766 53.9502 12.6525L50.9835 10.4694L49.6694 9.60612C49.6107 9.56845 49.5506 9.5338 49.4874 9.50367L46.4306 8.02418L45.4938 7.62945L43.8849 7.05694L42.3061 6.58989C42.2881 6.58387 42.2685 6.57935 42.249 6.57483L41.1438 6.33076L41.422 4.94468C41.4355 4.87387 41.4355 4.80456 41.422 4.73676C41.4084 4.66897 41.3829 4.60569 41.3453 4.54995C41.3092 4.49269 41.2626 4.44448 41.2054 4.40531C41.1483 4.36614 41.0852 4.33751 41.016 4.32395C40.9468 4.31039 40.8761 4.31039 40.81 4.32395C40.7423 4.33902 40.6822 4.36614 40.6265 4.40531C40.5709 4.44448 40.5243 4.4942 40.4837 4.55446C40.4431 4.61473 40.416 4.68102 40.4025 4.75484L40.2973 5.27613C40.2867 5.32886 40.2973 5.37858 40.3258 5.42227C40.3559 5.46747 40.398 5.49459 40.4521 5.50513L40.8386 5.58348L40.7062 6.24187L40.3198 6.16352C40.2025 6.13942 40.0973 6.09572 40.004 6.02943C39.9093 5.96465 39.8326 5.8848 39.7695 5.7929C39.7078 5.70099 39.6642 5.59854 39.6402 5.48705C39.6161 5.37557 39.6161 5.25956 39.6402 5.14355L39.7454 4.62226C39.7785 4.45654 39.8401 4.30889 39.9304 4.17631C40.0206 4.04373 40.1288 3.93525 40.2567 3.84787C40.3845 3.76199 40.5243 3.70173 40.6792 3.66707C40.834 3.63242 40.9904 3.63242 41.1498 3.66406C41.3092 3.6957 41.4535 3.75898 41.5844 3.85088C41.7137 3.94278 41.8204 4.05427 41.9046 4.18233C41.9888 4.31039 42.0475 4.45352 42.0791 4.6087C42.1106 4.76388 42.1106 4.92057 42.0775 5.07876L41.9317 5.80344L42.2941 5.90288L42.9557 6.09271L43.488 4.2215L44.1315 4.40531L43.5992 6.27652L44.0638 6.42868L44.6202 6.61249L45.2622 4.77594L45.8938 4.99741L45.2532 6.83396L45.7148 6.99517L46.6802 7.37634L46.9177 7.47427L48.1958 4.89195L48.7958 5.19025L48.2334 6.32473C48.4153 6.30364 48.6003 6.30665 48.7867 6.33226C48.9732 6.35787 49.1446 6.41061 49.3025 6.48895C49.4378 6.55675 49.5551 6.63961 49.6573 6.73905C49.7596 6.83848 49.8348 6.95449 49.8829 7.08858C49.931 7.22116 49.9475 7.37031 49.9325 7.53604C49.9175 7.70177 49.8588 7.88557 49.7596 8.08595L49.4408 8.72927L49.8769 8.94623L50.3791 9.22796L51.3549 7.63096L51.9263 7.982L50.9264 9.61968L51.3294 9.89539L51.8677 10.2479L53.033 8.69161L53.5668 9.09237L52.4015 10.6487L52.7278 10.8928L53.8931 9.33644L54.4284 9.7387L53.2631 11.295L53.5908 11.5421L54.7562 9.98579L55.2914 10.388L54.1261 11.9444L54.3802 12.1357C54.3968 12.1493 54.4133 12.1628 54.4299 12.1764L55.096 12.7941L55.4388 13.1436L55.9831 12.6058C56.1034 12.4883 56.2357 12.3994 56.3816 12.3421C56.5274 12.2849 56.6748 12.2577 56.8236 12.2608C56.974 12.2638 57.1199 12.2939 57.2612 12.3542C57.4025 12.4129 57.5319 12.5018 57.6461 12.6178C57.7604 12.7338 57.8461 12.8649 57.9033 13.0095C57.9604 13.1542 57.989 13.3018 57.989 13.451C57.989 13.6016 57.9604 13.7478 57.9017 13.8909H57.9063ZM58.1198 12.7308C58.0867 12.6977 58.0611 12.66 58.0461 12.6178C58.0296 12.5756 58.022 12.5335 58.022 12.4898C58.022 12.4461 58.0311 12.4039 58.0476 12.3617C58.0641 12.3195 58.0897 12.2819 58.1228 12.2487C58.1559 12.2156 58.195 12.1915 58.2371 12.1749C58.2792 12.1598 58.3228 12.1508 58.3649 12.1523C58.407 12.1538 58.4506 12.1613 58.4927 12.1779C58.5348 12.1945 58.5724 12.2201 58.6054 12.2532C58.6385 12.2864 58.6626 12.3255 58.6791 12.3677C58.6942 12.4099 58.7032 12.4536 58.7017 12.4958C58.7017 12.5395 58.6927 12.5817 58.6761 12.6239C58.6596 12.6645 58.634 12.7022 58.5994 12.7353C58.5664 12.7685 58.5288 12.7941 58.4867 12.8092C58.4446 12.8257 58.4025 12.8333 58.3589 12.8333C58.3152 12.8333 58.2731 12.8242 58.2325 12.8077C58.1904 12.7911 58.1544 12.7655 58.1213 12.7308H58.1198ZM62.13 25.1649C62.0187 24.856 62.0307 24.5652 62.166 24.2895L61.8894 23.5242C61.8804 23.4985 61.8698 23.4729 61.8578 23.4488L60.5436 20.749L60.2399 20.1584C60.2143 20.1087 60.1858 20.0605 60.1557 20.0138L59.6505 19.2529L58.9768 18.3113L60.1241 17.4887C60.1828 17.4465 60.2294 17.3968 60.2655 17.3365C60.3015 17.2763 60.3256 17.2145 60.3376 17.1482C60.3497 17.0819 60.3482 17.0141 60.3346 16.9463C60.3211 16.8785 60.2925 16.8152 60.2504 16.7565C60.2083 16.6977 60.1587 16.651 60.0986 16.6164C60.0384 16.5817 59.9753 16.5591 59.9091 16.5501C59.8429 16.541 59.7738 16.544 59.7046 16.5606C59.6339 16.5772 59.5693 16.6073 59.5076 16.651L59.0761 16.9614C59.0325 16.993 59.0054 17.0352 58.9964 17.0879C58.9874 17.1407 58.9994 17.1904 59.0325 17.2356L59.2625 17.5565L58.7182 17.9467L58.4882 17.6258C58.419 17.5294 58.3724 17.4239 58.3483 17.3124C58.3243 17.2009 58.3213 17.0894 58.3378 16.9795C58.3543 16.8695 58.3934 16.7655 58.4521 16.6676C58.5107 16.5697 58.5889 16.4853 58.6851 16.416L59.1167 16.1056C59.2535 16.0077 59.3994 15.9414 59.5557 15.9052C59.7121 15.8706 59.8655 15.8646 60.0174 15.8887C60.1692 15.9128 60.3136 15.964 60.4489 16.0454C60.5842 16.1252 60.7 16.2322 60.7947 16.3648C60.8895 16.4973 60.9526 16.642 60.9842 16.7987C61.0158 16.9554 61.0188 17.109 60.9932 17.2597C60.9662 17.4119 60.9135 17.555 60.8308 17.6906C60.7481 17.8262 60.6414 17.9407 60.5105 18.0326L59.9106 18.4635L60.1948 18.8612L60.7511 19.7335L61.1451 20.4582L61.5225 21.2432C61.5631 21.1663 61.6097 21.0925 61.6608 21.0217C61.7119 20.9509 61.7706 20.8801 61.8368 20.8108H61.8337C61.8939 20.7505 61.9585 20.6932 62.0277 20.6405C62.0969 20.5878 62.1721 20.5426 62.2487 20.5064C62.3675 20.4492 62.4878 20.413 62.6111 20.398C62.7344 20.3829 62.8547 20.3979 62.975 20.4416C63.0953 20.4853 63.2096 20.5637 63.3193 20.6767C63.4291 20.7882 63.5328 20.9433 63.6276 21.1407C63.7238 21.3396 63.7809 21.5189 63.8005 21.6771C63.82 21.8353 63.808 21.9754 63.7674 22.0974C63.7268 22.2194 63.6622 22.3234 63.5719 22.4108C63.4832 22.4982 63.378 22.5705 63.2577 22.6277C63.184 22.6639 63.1058 22.6925 63.0246 22.7136C62.9434 22.7347 62.8622 22.7513 62.7795 22.7618C62.6863 22.7739 62.5946 22.7784 62.5044 22.7739C62.4141 22.7694 62.3269 22.7603 62.2442 22.7467L62.4773 23.2108C62.4938 23.2424 62.5074 23.2756 62.5194 23.3087L62.6713 23.7306C62.7013 23.7125 62.7329 23.6974 62.763 23.6854C62.7931 23.6733 62.8246 23.6613 62.8577 23.6492L63.3644 23.4654C63.5193 23.4097 63.6757 23.3856 63.8336 23.3931C63.9915 23.4006 64.1403 23.4368 64.2786 23.5001C64.4185 23.5633 64.5418 23.6507 64.6485 23.7637C64.7553 23.8752 64.838 24.0093 64.8936 24.1615C64.9493 24.3151 64.9703 24.4703 64.9568 24.627C64.9432 24.7837 64.9027 24.9313 64.8365 25.0699C64.7703 25.2085 64.6771 25.3306 64.5628 25.4376C64.4486 25.5445 64.3147 25.6259 64.1659 25.6801L63.6576 25.8639C63.5058 25.9182 63.3524 25.9423 63.196 25.9332C63.0397 25.9242 62.8908 25.8895 62.751 25.8263C62.6111 25.763 62.4863 25.6756 62.3766 25.5626C62.2668 25.4496 62.1841 25.317 62.1285 25.1634L62.13 25.1649ZM63.3118 29.2161C63.3028 29.2598 63.2863 29.3005 63.2622 29.3367C63.2381 29.3728 63.2081 29.4044 63.172 29.4286C63.1359 29.4542 63.0953 29.4707 63.0487 29.4813C63.0021 29.4918 62.957 29.4918 62.9133 29.4813C62.8697 29.4722 62.8291 29.4557 62.7931 29.4316C62.757 29.4075 62.7254 29.3773 62.6998 29.3412C62.6728 29.305 62.6562 29.2628 62.6457 29.2161C62.6367 29.1694 62.6367 29.1242 62.6457 29.0805C62.6547 29.0368 62.6728 28.9962 62.6953 28.96C62.7194 28.9238 62.7495 28.8922 62.7855 28.8666C62.8216 28.841 62.8637 28.8229 62.9103 28.8139C62.957 28.8048 63.0006 28.8033 63.0442 28.8139C63.0878 28.8229 63.1269 28.8395 63.163 28.8636C63.199 28.8877 63.2306 28.9178 63.2547 28.954C63.2802 28.9901 63.2983 29.0323 63.3073 29.079C63.3163 29.1257 63.3178 29.1709 63.3073 29.2146L63.3118 29.2161ZM63.8456 27.2952L63.9343 27.6101L64.2786 29.1875C64.2907 29.2447 64.3192 29.2884 64.3644 29.3201C64.4095 29.3517 64.4591 29.3623 64.5117 29.3517L65.0259 29.2447C65.1327 29.2222 65.2169 29.1905 65.2816 29.1468C65.3462 29.1031 65.3943 29.0534 65.4244 28.9962C65.456 28.9389 65.4725 28.8801 65.477 28.8154C65.4815 28.7521 65.477 28.6888 65.4635 28.624C65.45 28.5547 65.4259 28.4839 65.3958 28.4101C65.3643 28.3363 65.3312 28.2639 65.2936 28.1946C65.256 28.1253 65.2184 28.0606 65.1808 28.0018C65.1417 27.943 65.1071 27.8933 65.0786 27.8557L65.6124 27.4519C65.65 27.5016 65.6936 27.5649 65.7432 27.6432C65.7928 27.7216 65.8424 27.8074 65.892 27.8993C65.9417 27.9913 65.9868 28.0892 66.0289 28.1916C66.071 28.2926 66.101 28.392 66.1206 28.4884C66.1507 28.6346 66.1627 28.7807 66.1552 28.9269C66.1492 29.073 66.1116 29.2101 66.0439 29.3382C65.9762 29.4662 65.871 29.5792 65.7297 29.6771C65.5883 29.7751 65.3973 29.8489 65.1598 29.8986L64.6455 30.0056C64.5282 30.0297 64.414 30.0297 64.3027 30.0056C64.1899 29.9815 64.0877 29.9393 63.996 29.8775C63.9027 29.8158 63.8245 29.7359 63.7584 29.641C63.6922 29.5461 63.6471 29.4391 63.6231 29.3216L63.2908 27.7909L63.202 27.476C63.169 27.36 63.1599 27.244 63.175 27.1295C63.19 27.015 63.2246 26.9095 63.2787 26.8116C63.3329 26.7136 63.405 26.6293 63.4953 26.5555C63.5855 26.4816 63.6862 26.4289 63.802 26.3973L66.3792 25.6711L66.5612 26.3204L63.9839 27.0466C63.9298 27.0617 63.8892 27.0933 63.8636 27.1415C63.8366 27.1897 63.8321 27.241 63.8471 27.2952H63.8456Z" fill="#383EBE"/>
<path d="M51.9068 59.7189L52.5985 60.891L52.7864 60.7615L51.9399 59.6963L51.9068 59.7189Z" fill="#383EBE"/>
<path d="M44.5014 63.0892C44.4909 63.0576 44.4714 63.035 44.4413 63.0199C44.4112 63.0048 44.3811 63.0033 44.3496 63.0139L44.1977 63.0651L44.966 65.3762L45.1179 65.325C45.1495 65.3145 45.172 65.2949 45.1871 65.2648C45.2021 65.2346 45.2036 65.2045 45.1931 65.1728L44.5014 63.0907V63.0892Z" fill="#383EBE"/>
<path d="M56.541 55.3076C56.5169 55.285 56.4883 55.2729 56.4553 55.2744C56.4222 55.2744 56.3936 55.288 56.3711 55.3121L56.2613 55.4281L58.025 57.1049L58.1348 56.9889C58.1574 56.9648 58.1694 56.9362 58.1679 56.9031C58.1664 56.8699 58.1544 56.8413 58.1303 56.8187L56.541 55.3076Z" fill="#383EBE"/>
<path d="M42.5978 64.3849C42.6144 64.3562 42.6189 64.3261 42.6114 64.2945L42.461 63.7024C42.4535 63.6707 42.4339 63.6451 42.4054 63.6285C42.3768 63.612 42.3467 63.6074 42.3152 63.615L42.1603 63.6542L42.3693 64.4798L42.5242 64.4406C42.5557 64.4331 42.5813 64.4135 42.5978 64.3849Z" fill="#383EBE"/>
<path d="M42.8038 65.0569C42.7963 65.0237 42.7767 64.9996 42.7482 64.983C42.7196 64.9665 42.6895 64.9619 42.6565 64.9695L42.5016 65.0086L42.7557 66.0136L42.9106 65.9744C42.9422 65.9668 42.9677 65.9473 42.9843 65.9186C43.0008 65.89 43.0053 65.8599 42.9978 65.8282L42.8023 65.0553L42.8038 65.0569Z" fill="#383EBE"/>
<path d="M40.2627 64.51L40.407 65.8629L40.6326 65.8222L40.3018 64.5024L40.2627 64.51Z" fill="#383EBE"/>
<path d="M62.7555 47.2532L62.0563 46.9414C62.0262 46.9278 61.9946 46.9278 61.9646 46.9384C61.9345 46.9504 61.9119 46.9715 61.8984 47.0016L61.8337 47.1478L62.7525 47.5576L62.8171 47.4114C62.8306 47.3813 62.8322 47.3497 62.8201 47.3195C62.8081 47.2894 62.787 47.2668 62.757 47.2532H62.7555Z" fill="#383EBE"/>
<path d="M66.11 35.8512C63.9749 35.5032 61.948 36.8426 61.3856 38.8885C61.3646 39.0377 61.3435 39.1884 61.318 39.3375C59.2806 51.8785 48.7882 60.9694 36.6299 61.7152C36.8644 61.8417 37.0765 61.9939 37.2644 62.1762C37.5305 62.4338 37.7411 62.7381 37.8944 63.0907C38.0478 63.4432 38.1245 63.8244 38.126 64.2327C38.126 64.6094 38.0734 64.9483 37.9651 65.2481C37.8568 65.548 37.7095 65.8222 37.5245 66.0708C37.3396 66.3194 37.1261 66.5529 36.884 66.7683C36.6434 66.9838 36.3893 67.1962 36.1247 67.4056L34.406 68.7525L38.0944 68.7465V69.9774C53.645 68.5913 66.922 56.8096 69.5428 40.6784C69.5744 40.4825 69.603 40.2867 69.63 40.0908C69.6721 38.0283 68.1971 36.1902 66.11 35.8497V35.8512ZM41.4385 66.8693L40.9904 66.9491C40.9483 66.9566 40.9197 66.9386 40.9047 66.8934L40.7709 66.3676L40.4656 66.4218L40.5213 66.9612C40.5228 67.0079 40.5017 67.0365 40.4596 67.044L40.0115 67.1239C39.9649 67.1314 39.9424 67.1133 39.9409 67.0651L39.7213 63.6843C39.7198 63.6376 39.7424 63.609 39.7875 63.6014L40.4371 63.4854C40.4837 63.4779 40.5138 63.496 40.5288 63.5412L41.4881 66.7909C41.5031 66.8361 41.4881 66.8617 41.4415 66.8708L41.4385 66.8693ZM43.5827 65.9593C43.5691 66.0421 43.5421 66.1175 43.5015 66.1868C43.4609 66.2561 43.4067 66.3163 43.3406 66.3676C43.2744 66.4188 43.1992 66.4549 43.115 66.476L42.3873 66.6613C42.3422 66.6734 42.3136 66.6553 42.3016 66.6101L41.4761 63.3453C41.464 63.3001 41.4821 63.2715 41.5272 63.2594L42.255 63.0741C42.3392 63.053 42.4219 63.0485 42.5046 63.0621C42.5873 63.0756 42.6624 63.1027 42.7316 63.1434C42.8008 63.1841 42.8609 63.2383 42.912 63.3046C42.9632 63.3709 42.9992 63.4462 43.0203 63.5306L43.1436 64.0157C43.1812 64.1649 43.1677 64.3005 43.103 64.424C43.0684 64.4888 43.0203 64.5446 42.9602 64.5943C43.0383 64.6018 43.1045 64.6229 43.1616 64.6576C43.2188 64.6922 43.2654 64.7359 43.3045 64.7916C43.3421 64.8474 43.3706 64.9122 43.3902 64.9875L43.5721 65.7062C43.5932 65.7905 43.5977 65.8734 43.5842 65.9563L43.5827 65.9593ZM45.7208 65.4922C45.6847 65.5645 45.6366 65.6278 45.5735 65.6836C45.5118 65.7393 45.4396 65.7815 45.3569 65.8086L44.6457 66.0467C44.6021 66.0617 44.572 66.0467 44.557 66.003L43.4954 62.809C43.4804 62.7653 43.4954 62.7351 43.5391 62.7201L44.2503 62.482C44.333 62.4549 44.4157 62.4444 44.4984 62.4519C44.5811 62.4594 44.6593 62.4805 44.7314 62.5167C44.8036 62.5528 44.8668 62.601 44.9224 62.6643C44.978 62.7261 45.0201 62.7984 45.0472 62.8813L45.7554 65.0116C45.7825 65.0945 45.793 65.1773 45.7855 65.2602C45.778 65.3431 45.7569 65.4214 45.7208 65.4937V65.4922ZM47.871 64.8459L46.8681 65.2617C46.8245 65.2798 46.7944 65.2662 46.7764 65.224L45.4938 62.1114C45.4757 62.0677 45.4893 62.0376 45.5314 62.0195L46.5343 61.6037C46.5779 61.5856 46.608 61.5992 46.626 61.6413L46.7959 62.0541C46.814 62.0978 46.8004 62.128 46.7583 62.146L46.2321 62.3645L46.5072 63.0319L46.9643 62.8421C47.0079 62.824 47.038 62.8376 47.056 62.8798L47.226 63.2926C47.244 63.3363 47.2305 63.3664 47.1884 63.3845L46.7313 63.5743L47.1222 64.5235L47.6485 64.305C47.6921 64.2869 47.7222 64.3005 47.7402 64.3427L47.9101 64.7555C47.9282 64.7992 47.9146 64.8293 47.8725 64.8474L47.871 64.8459ZM49.8814 63.8907L49.2754 64.1905L49.2664 64.195H49.2619L48.8634 64.3939C48.8213 64.415 48.7897 64.4045 48.7702 64.3623L47.2831 61.343C47.262 61.3008 47.2726 61.2692 47.3147 61.2496L47.7131 61.0523C47.7552 61.0312 47.7868 61.0417 47.8064 61.0839L49.0664 63.6406L49.6227 63.3649C49.6648 63.3438 49.6964 63.3543 49.716 63.3965L49.9129 63.7958C49.934 63.838 49.9235 63.8696 49.8814 63.8892V63.8907ZM51.9353 62.7276L51.5519 62.9536C51.5113 62.9777 51.4797 62.9687 51.4557 62.928L50.7324 61.6911L50.4482 61.8583L51.1715 63.0952C51.1955 63.1359 51.1865 63.1675 51.1459 63.1916L50.7625 63.4176C50.7219 63.4417 50.6903 63.4327 50.6663 63.392L48.9672 60.4873C48.9431 60.4466 48.9521 60.415 48.9927 60.3908L49.3761 60.1649C49.4167 60.1408 49.4483 60.1498 49.4724 60.1905L50.152 61.3536L50.4362 61.1863L49.7566 60.0232C49.7325 59.9826 49.7415 59.9509 49.7821 59.9268L50.1656 59.7008C50.2062 59.6767 50.2377 59.6858 50.2618 59.7264L51.9609 62.6312C51.9849 62.6719 51.9759 62.7035 51.9353 62.7276ZM53.9532 61.3792L53.5788 61.6383C53.5427 61.6624 53.5096 61.6579 53.4781 61.6233L53.1382 61.1999L52.8826 61.3762L53.1563 61.8447C53.1773 61.8869 53.1698 61.9201 53.1337 61.9457L52.7593 62.2048C52.7202 62.2319 52.6917 62.2229 52.6706 62.1807L51.0722 59.1946C51.0512 59.1524 51.0602 59.1178 51.0978 59.0906L51.6406 58.7155C51.6797 58.6884 51.7143 58.6929 51.7459 58.7276L53.9622 61.2873C53.9938 61.3219 53.9908 61.3521 53.9532 61.3792ZM56.1515 59.6436L55.7801 59.9479C55.744 59.978 55.7109 59.9735 55.6824 59.9374L54.684 58.711L55.2433 59.9223C55.2493 59.9389 55.2478 59.9509 55.2403 59.9569C55.2328 59.963 55.2208 59.9615 55.2057 59.9539L54.1351 59.1615L55.1335 60.3878C55.1636 60.424 55.1591 60.4571 55.123 60.4873L54.7516 60.7916C54.7155 60.8217 54.6825 60.8172 54.6539 60.7811L52.5293 58.1716C52.4992 58.1355 52.5037 58.1023 52.5398 58.0722L52.8691 57.8025C52.8841 57.7904 52.9022 57.7844 52.9247 57.7874C52.9458 57.7889 52.9638 57.795 52.9803 57.804L54.4178 58.9445L53.5923 57.3038C53.5863 57.2872 53.5848 57.2677 53.5878 57.2466C53.5893 57.2255 53.5983 57.2089 53.6149 57.1953L53.9442 56.9257C53.9803 56.8955 54.0133 56.9 54.0419 56.9362L56.1665 59.5456C56.1966 59.5818 56.1921 59.6149 56.156 59.6436H56.1515ZM57.2852 58.5995L56.9605 58.9038C56.9259 58.9355 56.8928 58.934 56.8612 58.9008L54.5652 56.442C54.5336 56.4074 54.5351 56.3742 54.5682 56.3426L54.893 56.0383C54.9275 56.0066 54.9606 56.0081 54.9922 56.0413L57.2882 58.5001C57.3198 58.5347 57.3183 58.5679 57.2852 58.5995ZM58.7062 57.0899C58.6776 57.1682 58.634 57.239 58.5739 57.3023L58.0581 57.8477C58.0265 57.8823 57.9935 57.8823 57.9589 57.8507L55.5215 55.5335C55.4869 55.5019 55.4869 55.4688 55.5185 55.4341L56.0342 54.8887C56.0944 54.8254 56.162 54.7772 56.2387 54.7456C56.3154 54.7124 56.3936 54.6959 56.4748 54.6929C56.556 54.6898 56.6342 54.7034 56.7124 54.732C56.7905 54.7607 56.8612 54.8043 56.9244 54.8646L58.5498 56.4104C58.6129 56.4707 58.6611 56.5385 58.6926 56.6153C58.7257 56.6921 58.7423 56.7705 58.7453 56.8518C58.7483 56.9332 58.7347 57.0115 58.7062 57.0899ZM61.4503 53.7994L61.1616 54.1836C61.133 54.2213 61.1015 54.2258 61.0639 54.1972L59.8008 53.2465L60.6338 54.2876C60.6428 54.3026 60.6444 54.3147 60.6383 54.3222C60.6323 54.3298 60.6203 54.3313 60.6038 54.3268L59.3738 53.8145L60.6368 54.7652C60.6744 54.7938 60.6789 54.8254 60.6504 54.8631L60.3617 55.2473C60.3331 55.285 60.3015 55.2895 60.2639 55.2609L57.5769 53.239C57.5394 53.2104 57.5348 53.1787 57.5634 53.1411L57.819 52.8006C57.8311 52.784 57.8476 52.7749 57.8686 52.7719C57.8897 52.7689 57.9092 52.7704 57.9258 52.775L59.5948 53.5358L58.3994 52.1422C58.3904 52.1271 58.3844 52.109 58.3814 52.0879C58.3784 52.0668 58.3829 52.0488 58.3949 52.0322L58.6505 51.6917C58.6791 51.654 58.7107 51.6495 58.7483 51.6781L61.4353 53.7C61.4728 53.7286 61.4774 53.7603 61.4488 53.7979L61.4503 53.7994ZM62.6532 51.9538L62.0713 52.8714C62.0457 52.9105 62.0142 52.9181 61.9751 52.8925L59.1377 51.0891C59.0986 51.0634 59.0911 51.0318 59.1167 50.9926L59.6986 50.0751C59.7241 50.0359 59.7557 50.0284 59.7948 50.054L60.1707 50.2936C60.2098 50.3192 60.2173 50.3508 60.1918 50.39L59.8865 50.8721L60.494 51.2593L60.7586 50.8405C60.7842 50.8013 60.8158 50.7938 60.8549 50.8194L61.2308 51.0589C61.2699 51.0845 61.2774 51.1162 61.2518 51.1553L60.9872 51.5742L61.8533 52.1241L62.1585 51.642C62.1841 51.6028 62.2156 51.5953 62.2547 51.6209L62.6306 51.8604C62.6697 51.886 62.6773 51.9177 62.6517 51.9569L62.6532 51.9538ZM63.8456 49.8265L63.6351 50.2197C63.6125 50.2604 63.5809 50.271 63.5403 50.2484L62.2803 49.5689L62.1239 49.8597L63.384 50.5391C63.4246 50.5617 63.4351 50.5934 63.4125 50.6341L63.202 51.0273C63.1795 51.068 63.1479 51.0785 63.1073 51.0559L60.1482 49.4589C60.1076 49.4363 60.097 49.4047 60.1196 49.364L60.3301 48.9708C60.3526 48.9301 60.3842 48.9195 60.4248 48.9421L61.6097 49.5809L61.7661 49.2902L60.5812 48.6514C60.5406 48.6288 60.5301 48.5971 60.5526 48.5564L60.7631 48.1632C60.7857 48.1225 60.8173 48.112 60.8579 48.1346L63.817 49.7316C63.8576 49.7542 63.8681 49.7858 63.8456 49.8265ZM64.9147 47.5184L64.7297 47.9357C64.7222 47.9538 64.7072 47.9689 64.6876 47.9794C64.6681 47.9915 64.647 47.996 64.626 47.993L63.3584 47.8288L64.5418 48.3561L64.4936 48.341C64.5207 48.3606 64.5282 48.3877 64.5132 48.4209L64.3328 48.8276C64.3132 48.8698 64.2831 48.8819 64.241 48.8638L61.1706 47.4958C61.1285 47.4762 61.1165 47.4461 61.1345 47.4039L61.4398 46.7169C61.4744 46.637 61.524 46.5692 61.5856 46.5135C61.6473 46.4562 61.7149 46.4141 61.7901 46.3854C61.8653 46.3568 61.9435 46.3432 62.0277 46.3432C62.1119 46.3432 62.1931 46.3613 62.2713 46.3975L63.0156 46.7289C63.1283 46.7787 63.2171 46.854 63.2802 46.9519C63.3449 47.0498 63.3795 47.1568 63.387 47.2728L64.8696 47.4461C64.9162 47.4566 64.9312 47.4807 64.9132 47.5199L64.9147 47.5184ZM65.4094 46.2242L65.253 46.6415C65.2364 46.6852 65.2064 46.6988 65.1628 46.6822L62.0157 45.5026C61.9721 45.486 61.9585 45.4559 61.9751 45.4122L62.1314 44.9948C62.148 44.9511 62.1781 44.9376 62.2217 44.9542L65.3688 46.1338C65.4124 46.1504 65.4259 46.1805 65.4094 46.2242ZM67.937 40.4178C67.7114 41.8023 66.4063 42.7455 65.0259 42.521C63.6456 42.2965 62.7058 40.9857 62.9299 39.6012C63.1554 38.2166 64.4606 37.2735 65.8409 37.4979C67.2212 37.7224 68.161 39.0332 67.937 40.4178Z" fill="#383EBE"/>
<path d="M15.6633 57.23C15.6377 57.2074 15.6092 57.1984 15.5776 57.1999C15.5445 57.2014 15.5174 57.2149 15.4964 57.2405L14.0183 58.934C13.9958 58.9596 13.9868 58.9882 13.9883 59.0214C13.9898 59.0545 14.0033 59.0816 14.0289 59.1027L14.0589 59.1283C14.0845 59.1494 14.1131 59.16 14.1461 59.1585C14.1792 59.157 14.2063 59.1434 14.2273 59.1178L15.7054 57.4244C15.7265 57.3987 15.737 57.3701 15.7355 57.3385C15.734 57.3053 15.7189 57.2782 15.6949 57.2571L15.6648 57.2315L15.6633 57.23Z" fill="#383EBE"/>
<path d="M8.05945 49.1319C8.09102 49.1425 8.1211 49.1395 8.14967 49.1244L8.8248 48.7749C8.85487 48.7598 8.87442 48.7357 8.88344 48.7056C8.89396 48.6739 8.89096 48.6438 8.87592 48.6137L8.80224 48.472L7.9151 48.9316L7.98878 49.0732C8.00381 49.1018 8.02787 49.1229 8.05795 49.1319H8.05945Z" fill="#383EBE"/>
<path d="M36.045 63.3001C35.9202 63.1826 35.7759 63.0922 35.612 63.0274C35.4481 62.9641 35.2706 62.931 35.0797 62.931C34.8541 62.931 34.6526 62.9671 34.4782 63.0379C34.3038 63.1088 34.1565 63.2112 34.0362 63.3423C33.9174 63.4734 33.8257 63.63 33.761 63.8123C33.6963 63.9946 33.6648 64.1965 33.6648 64.418C33.6648 64.5551 33.6933 64.6892 33.749 64.8172C33.7851 64.9001 33.8317 64.9769 33.8858 65.0523L32.5701 66.0813C32.4649 65.9487 32.3686 65.8101 32.295 65.6579C32.0829 65.2316 31.9777 64.769 31.9777 64.2673C31.9777 63.8199 32.0649 63.4146 32.2408 63.0545C32.4183 62.6944 32.6528 62.3901 32.9475 62.1385C33.1385 61.9758 33.352 61.8387 33.5821 61.7242C32.6303 61.673 31.674 61.572 30.7131 61.4153C17.7804 59.3061 8.52407 48.1512 8.33311 35.458C6.97834 36.4132 5.26721 36.8591 3.50796 36.5729C2.13364 36.3484 0.929234 35.7081 -9.7804e-06 34.8026C-0.126315 51.7866 12.1358 66.8436 29.3749 69.655C30.3207 69.8086 31.262 69.9216 32.2017 69.9985C32.122 69.9216 32.0529 69.8312 31.9987 69.7273C31.9206 69.5811 31.8815 69.4034 31.8815 69.1954C31.8815 69.0583 31.8995 68.9363 31.9371 68.8293C31.9747 68.7224 32.0258 68.6259 32.0935 68.5401C32.1596 68.4542 32.2363 68.3728 32.322 68.3005C32.4077 68.2267 32.4995 68.1544 32.5972 68.0836L32.7295 67.9841H32.7235L35.6435 65.676C35.7503 65.5916 35.8495 65.4952 35.9458 65.3867C36.0405 65.2783 36.1262 65.1623 36.2014 65.0402C36.2766 64.9182 36.3367 64.7901 36.3803 64.6575C36.4239 64.525 36.4465 64.3894 36.4465 64.2508C36.4465 64.0594 36.4104 63.8832 36.3397 63.7219C36.2691 63.5607 36.1713 63.4206 36.0465 63.3031L36.045 63.3001ZM3.20122 40.9842C3.15611 40.9149 3.12604 40.8381 3.111 40.7522L3.07942 40.5654C3.06439 40.481 3.0674 40.3982 3.08694 40.3168C3.10649 40.2354 3.13957 40.1631 3.18468 40.0983C3.22979 40.0336 3.28843 39.9778 3.3576 39.9326C3.42676 39.8874 3.50345 39.8573 3.58916 39.8422L6.36486 39.3601C6.40997 39.3526 6.43703 39.3706 6.44455 39.4174L6.51973 39.8543C6.52725 39.8995 6.5092 39.9266 6.46259 39.9341L3.71095 40.4117C3.67787 40.4177 3.65231 40.4343 3.63426 40.4599C3.61472 40.487 3.6087 40.5172 3.61472 40.5488L3.62073 40.588C3.62675 40.6211 3.64329 40.6467 3.66885 40.6648C3.69591 40.6844 3.72599 40.6904 3.75756 40.6844L6.5092 40.2068C6.55431 40.1993 6.58138 40.2174 6.5889 40.2641L6.66408 40.701C6.6716 40.7462 6.65355 40.7733 6.60694 40.7808L3.83124 41.2629C3.74704 41.278 3.66434 41.275 3.58314 41.2554C3.50194 41.2358 3.42977 41.2027 3.36511 41.1575C3.30046 41.1108 3.24482 41.0535 3.19972 40.9842H3.20122ZM3.75305 43.5259L3.67787 43.217C3.67336 43.1974 3.67486 43.1778 3.68388 43.1568C3.69291 43.1357 3.70343 43.1206 3.71847 43.11L5.19052 42.2061L3.59818 42.5978C3.55307 42.6083 3.5245 42.5918 3.51397 42.5466L3.40872 42.1157C3.39819 42.0705 3.41473 42.0419 3.45984 42.0313L6.70167 41.2358C6.74678 41.2253 6.77535 41.2419 6.78587 41.2871L6.86406 41.6065C6.86857 41.626 6.86707 41.6456 6.85805 41.6667C6.84903 41.6878 6.8385 41.7029 6.82346 41.7134L5.39802 42.5963L6.94225 42.2166C6.98736 42.2061 7.01593 42.2227 7.02645 42.2679L7.13171 42.6987C7.14223 42.7439 7.12569 42.7726 7.08058 42.7831L3.83876 43.5786C3.79365 43.5891 3.76508 43.5726 3.75455 43.5274L3.75305 43.5259ZM4.12294 44.7748L3.99363 44.3515C3.9801 44.3063 3.99514 44.2777 4.04024 44.2641L7.23245 43.2863C7.27606 43.2728 7.30613 43.2878 7.31966 43.333L7.44897 43.7564C7.46251 43.8001 7.44747 43.8302 7.40236 43.8438L4.21015 44.8216C4.16505 44.8351 4.13648 44.82 4.12294 44.7748ZM4.67929 46.4005L4.52892 45.9892C4.51238 45.9455 4.52592 45.9123 4.56651 45.8897L7.5016 44.1903C7.5422 44.1677 7.57077 44.1782 7.58731 44.2219L7.77075 44.7266C7.78579 44.7673 7.77075 44.799 7.73166 44.82L5.82355 45.7361L5.83107 45.7541L7.87901 45.2223C7.92412 45.2133 7.9557 45.2283 7.96923 45.269L8.15267 45.7737C8.16921 45.8174 8.15267 45.8445 8.10756 45.8536L4.77101 46.4487C4.7244 46.4577 4.69432 46.4412 4.67778 46.3975L4.67929 46.4005ZM5.58748 48.6016L5.15443 47.6118C5.13639 47.5696 5.14842 47.5395 5.19052 47.5199L8.2474 46.176C8.2895 46.1579 8.32108 46.1685 8.33912 46.2122L8.77217 47.202C8.79021 47.2442 8.77818 47.2743 8.73608 47.2939L8.3316 47.4717C8.2895 47.4898 8.25793 47.4777 8.23988 47.4355L8.01284 46.9157L7.35725 47.2035L7.55423 47.654C7.57227 47.6962 7.56024 47.7278 7.51814 47.7459L7.11366 47.9237C7.07156 47.9417 7.03999 47.9312 7.02194 47.8875L6.82497 47.437L5.89272 47.8468L6.11976 48.3666C6.13781 48.4088 6.12578 48.4389 6.08368 48.4585L5.6792 48.6363C5.6371 48.6544 5.60552 48.6423 5.58748 48.6001V48.6016ZM6.60243 50.634L6.39493 50.2318C6.38591 50.2137 6.3829 50.1941 6.38591 50.1715C6.38891 50.1489 6.39794 50.1308 6.41297 50.1158L7.32718 49.2329L6.18442 49.825L6.22652 49.7979C6.19344 49.8069 6.16938 49.7964 6.15284 49.7632L5.94985 49.37C5.9288 49.3293 5.93783 49.2977 5.97993 49.2766L8.94509 47.7414C8.98568 47.7203 9.01726 47.7293 9.03831 47.7715L9.38114 48.4344C9.42023 48.5112 9.44279 48.5911 9.4488 48.6739C9.45482 48.7568 9.44429 48.8367 9.42023 48.912C9.39617 48.9873 9.35708 49.0581 9.30596 49.1229C9.25333 49.1877 9.18867 49.2389 9.11199 49.2796L8.39325 49.6517C8.28499 49.7075 8.17222 49.7301 8.05644 49.7195C7.94066 49.709 7.83541 49.6698 7.74218 49.602L6.68663 50.6476C6.65055 50.6777 6.62198 50.6732 6.60243 50.6356V50.634ZM7.6685 52.1542C7.59182 52.1346 7.51814 52.1015 7.45048 52.0533C7.38281 52.0051 7.32718 51.9433 7.28207 51.8695L7.18433 51.7068C7.13923 51.6329 7.11216 51.5546 7.10163 51.4717C7.09111 51.3889 7.09562 51.309 7.11366 51.2322C7.13321 51.1553 7.16629 51.0815 7.21441 51.0137C7.26252 50.9459 7.32417 50.8902 7.39785 50.845L7.80684 50.5979C7.84593 50.5738 7.88352 50.5768 7.9166 50.6069L8.25191 50.9339C8.28499 50.964 8.28198 50.9911 8.24289 51.0152L7.71963 51.3316C7.69106 51.3482 7.67301 51.3738 7.6655 51.4054C7.65798 51.4371 7.66249 51.4672 7.67903 51.4958L7.70008 51.5305C7.71662 51.5591 7.74218 51.5772 7.77376 51.5847C7.80533 51.5922 7.83541 51.5877 7.86398 51.5712L8.42633 51.2322C8.46092 51.2066 8.49099 51.1825 8.51354 51.1553C8.5361 51.1297 8.55264 51.0981 8.56016 51.0574L8.65037 50.2529C8.66391 50.1866 8.68646 50.1323 8.71503 50.0887C8.7436 50.0465 8.79021 50.0058 8.85637 49.9666L9.36761 49.6593C9.44128 49.6156 9.51947 49.587 9.60217 49.5764C9.68487 49.5659 9.76456 49.5704 9.84125 49.5885C9.91793 49.608 9.99161 49.6412 10.0593 49.6894C10.1269 49.7376 10.1826 49.7994 10.2277 49.8732L10.3254 50.0359C10.3705 50.1097 10.3976 50.1881 10.4081 50.271C10.4186 50.3538 10.4141 50.4337 10.3961 50.5105C10.3765 50.5873 10.3435 50.6597 10.2953 50.729C10.2472 50.7968 10.1856 50.8525 10.1119 50.8977L9.94951 50.9956C9.91042 51.0197 9.87283 51.0167 9.83975 50.9866L9.50444 50.6597C9.47136 50.6295 9.47436 50.6024 9.51346 50.5783L9.79013 50.4111C9.8187 50.3945 9.83674 50.3689 9.84426 50.3372C9.85178 50.3056 9.84726 50.2755 9.83072 50.2468L9.80967 50.2122C9.79313 50.1836 9.76757 50.1655 9.736 50.158C9.70442 50.1504 9.67435 50.1549 9.64578 50.1715L9.25784 50.405C9.22777 50.4261 9.20521 50.4487 9.18717 50.4713C9.16913 50.4939 9.15559 50.5226 9.14657 50.5587L9.06538 51.3693C9.05335 51.4386 9.02929 51.4928 8.99621 51.5305C8.96313 51.5681 8.92253 51.6058 8.87442 51.642L8.14215 52.0834C8.06847 52.1286 7.99028 52.1557 7.90758 52.1663C7.82488 52.1768 7.74519 52.1738 7.6685 52.1542ZM8.26996 53.3429L8.02336 52.9753C7.9978 52.9361 8.00381 52.9045 8.04291 52.8789L10.8126 51.0107C10.8517 50.9851 10.8833 50.9911 10.9088 51.0303L11.1554 51.3979C11.181 51.4371 11.175 51.4687 11.1359 51.4943L8.36619 53.3625C8.32709 53.3881 8.29552 53.3821 8.26996 53.3429ZM9.20672 54.6461L8.94208 54.2906C8.93155 54.277 8.92855 54.2604 8.93005 54.2409C8.93155 54.2213 8.94057 54.2047 8.95711 54.1927L11.2216 52.4962L11.0141 52.2175C10.987 52.1798 10.9915 52.1482 11.0276 52.1196L11.3825 51.8544C11.4201 51.8273 11.4516 51.8318 11.4802 51.868L12.2471 52.897C12.2741 52.9346 12.2696 52.9663 12.2335 52.9949L11.8787 53.2601C11.8411 53.2872 11.8095 53.2827 11.7809 53.2465L11.5704 52.9633L9.30596 54.6597C9.26837 54.6883 9.23679 54.6823 9.20822 54.6461H9.20672ZM11.808 55.3166L11.4907 54.9399L10.7134 55.5983L11.0787 56.0322C11.1088 56.0669 11.1058 56.1 11.0712 56.1301L10.7329 56.4164C10.6968 56.4465 10.6652 56.4435 10.6352 56.4089L9.93899 55.5832C9.90891 55.5471 9.91192 55.5155 9.94801 55.4853L12.4982 53.3264C12.5343 53.2962 12.5658 53.2992 12.5959 53.3339L13.2921 54.1595C13.3222 54.1957 13.3191 54.2273 13.2831 54.2574L12.9447 54.5437C12.9087 54.5738 12.8771 54.5708 12.847 54.5362L12.4816 54.1023L11.9358 54.5648L12.2531 54.9414C12.2831 54.9761 12.2801 55.0092 12.2456 55.0394L11.9072 55.3256C11.8712 55.3558 11.8396 55.3527 11.8095 55.3181L11.808 55.3166ZM12.9372 58.3162C12.8605 58.3464 12.7824 58.3629 12.7027 58.3629C12.623 58.3629 12.5448 58.3479 12.4666 58.3177C12.3884 58.2876 12.3207 58.2424 12.2591 58.1806L12.1253 58.0481C12.0636 57.9878 12.0185 57.9185 11.9869 57.8401C11.9569 57.7633 11.9403 57.685 11.9403 57.6051C11.9403 57.5253 11.9554 57.4469 11.9854 57.3686C12.0155 57.2917 12.0606 57.2224 12.1223 57.1607L13.7402 55.529C13.8003 55.4672 13.8695 55.422 13.9477 55.3904C14.0243 55.3603 14.1025 55.3437 14.1822 55.3437C14.2619 55.3437 14.3401 55.3588 14.4183 55.3889C14.495 55.419 14.5642 55.4642 14.6258 55.526L14.7596 55.6586C14.8213 55.7188 14.8664 55.7881 14.898 55.8665C14.928 55.9433 14.9446 56.0217 14.9446 56.1015C14.9446 56.1814 14.9295 56.2597 14.8995 56.3381C14.8694 56.4149 14.8243 56.4857 14.7626 56.546L14.483 56.8292C14.4499 56.8624 14.4138 56.8684 14.3747 56.8473L14.0048 56.5776C13.9642 56.5565 13.9612 56.5294 13.9943 56.4963L14.3341 56.1543C14.3582 56.1301 14.3687 56.103 14.3687 56.0699C14.3687 56.0367 14.3567 56.0081 14.3326 55.9855L14.304 55.9569C14.28 55.9328 14.2529 55.9222 14.2198 55.9222C14.1867 55.9222 14.1582 55.9343 14.1356 55.9584L12.5538 57.5539C12.5297 57.578 12.5192 57.6051 12.5192 57.6383C12.5192 57.6714 12.5312 57.6985 12.5553 57.7226L12.5839 57.7513C12.6079 57.7739 12.635 57.7859 12.6681 57.7859C12.7012 57.7859 12.7282 57.7739 12.7523 57.7498L13.2425 57.2556C13.2755 57.2224 13.3026 57.2255 13.3237 57.2661L13.6018 57.6277C13.6229 57.6669 13.6169 57.7046 13.5853 57.7377L13.1477 58.1791C13.0876 58.2409 13.0184 58.2861 12.9402 58.3177L12.9372 58.3162ZM14.4499 59.6707C14.3747 59.7068 14.298 59.7264 14.2183 59.7324C14.1386 59.7385 14.0589 59.7279 13.9807 59.7023C13.9011 59.6767 13.8289 59.636 13.7642 59.5788L13.6229 59.4537C13.5582 59.3965 13.5086 59.3302 13.4725 59.2564C13.4364 59.181 13.4169 59.1042 13.4109 59.0243C13.4049 58.9445 13.4154 58.8646 13.4409 58.7863C13.4665 58.7064 13.5071 58.6356 13.5642 58.5693L15.0754 56.8383C15.1325 56.7735 15.1972 56.7238 15.2724 56.6876C15.3475 56.6514 15.4242 56.6318 15.5039 56.6258C15.5836 56.6198 15.6633 56.6303 15.7415 56.656C15.8212 56.6816 15.8919 56.7222 15.958 56.7795L16.1009 56.9045C16.1655 56.9618 16.2151 57.0266 16.2512 57.1019C16.2873 57.1772 16.3069 57.2541 16.3129 57.3339C16.3174 57.4138 16.3084 57.4936 16.2828 57.572C16.2572 57.6518 16.2166 57.7241 16.1595 57.7889L14.6484 59.52C14.5912 59.5848 14.5251 59.6345 14.4514 59.6707H14.4499ZM16.0046 61.331L15.752 61.1381C15.7355 61.1261 15.725 61.1095 15.7189 61.0869C15.7129 61.0658 15.7114 61.0462 15.7159 61.0281L16.2933 59.398L15.3009 60.7042C15.2724 60.7419 15.2408 60.7449 15.2032 60.7178L14.8513 60.4496C14.8138 60.421 14.8107 60.3893 14.8378 60.3517L16.8602 57.691C16.8888 57.6533 16.9203 57.6503 16.9579 57.6774L17.2196 57.8763C17.2361 57.8884 17.2466 57.9049 17.2526 57.926C17.2587 57.9471 17.2602 57.9667 17.2556 57.9848L16.7008 59.5697L17.6631 58.3027C17.6917 58.265 17.7233 58.2605 17.7609 58.2891L18.1127 58.5573C18.1503 58.5859 18.1533 58.6176 18.1263 58.6552L16.1039 61.3174C16.0753 61.3551 16.0437 61.3581 16.0061 61.331H16.0046ZM17.9563 62.2349C17.8872 62.2801 17.8135 62.3118 17.7353 62.3268C17.6571 62.3434 17.5774 62.3434 17.4962 62.3298C17.415 62.3148 17.3368 62.2846 17.2662 62.2364L17.1083 62.1325C17.0361 62.0843 16.9775 62.0255 16.9324 61.9562C16.8873 61.8869 16.8557 61.8131 16.8406 61.7347C16.8241 61.6564 16.8241 61.5765 16.8376 61.4952C16.8527 61.4138 16.8827 61.3355 16.9309 61.2647L17.194 60.8654C17.2196 60.8262 17.2541 60.8142 17.2978 60.8262L17.7413 60.9754C17.7849 60.9875 17.7939 61.0146 17.7684 61.0522L17.4316 61.563C17.4135 61.5901 17.4075 61.6202 17.4135 61.6534C17.4195 61.685 17.4376 61.7106 17.4647 61.7287L17.4977 61.7513C17.5248 61.7694 17.5549 61.7754 17.588 61.7694C17.6195 61.7634 17.6451 61.7453 17.6631 61.7182L18.024 61.1698C18.0451 61.1321 18.0601 61.0959 18.0706 61.0628C18.0811 61.0296 18.0796 60.9935 18.0706 60.9558L17.8075 60.1905C17.7909 60.1242 17.7879 60.0654 17.7955 60.0157C17.803 59.9645 17.8285 59.9087 17.8691 59.8439L18.1969 59.3452C18.245 59.2729 18.3022 59.2142 18.3728 59.169C18.442 59.1238 18.5157 59.0921 18.5939 59.0771C18.6721 59.0605 18.7518 59.0605 18.833 59.0741C18.9142 59.0891 18.9908 59.1193 19.063 59.1675L19.2209 59.2714C19.2931 59.3196 19.3517 59.3769 19.3968 59.4477C19.4419 59.517 19.472 59.5908 19.4885 59.6692C19.5051 59.7475 19.5051 59.8274 19.4915 59.9087C19.478 59.9901 19.4464 60.0684 19.3983 60.1392L19.2946 60.2974C19.269 60.3366 19.2344 60.3487 19.1908 60.3366L18.7473 60.1874C18.7036 60.1754 18.6946 60.1498 18.7202 60.1106L18.8976 59.8409C18.9157 59.8138 18.9217 59.7837 18.9157 59.7505C18.9096 59.7189 18.8916 59.6933 18.8645 59.6752L18.8315 59.6526C18.8044 59.6345 18.7743 59.6285 18.7412 59.6345C18.7097 59.6405 18.6841 59.6586 18.6661 59.6857L18.4165 60.0639C18.3984 60.0955 18.3879 60.1257 18.3804 60.1543C18.3743 60.1814 18.3744 60.2146 18.3819 60.2507L18.657 61.0176C18.6751 61.0854 18.6781 61.1441 18.6646 61.1924C18.651 61.2406 18.63 61.2918 18.6029 61.3445L18.1323 62.0586C18.0842 62.131 18.0255 62.1897 17.9563 62.2349ZM19.0134 63.27L18.6315 63.0485C18.6164 63.0395 18.6074 63.0259 18.5999 63.0078C18.5939 62.9882 18.5954 62.9701 18.6059 62.9536L20.0223 60.5023L19.7216 60.3276C19.681 60.305 19.6735 60.2733 19.696 60.2326L19.9171 59.85C19.9396 59.8093 19.9712 59.8017 20.0118 59.8243L21.1215 60.4677C21.1621 60.4903 21.1696 60.5234 21.147 60.5626L20.926 60.9468C20.9035 60.9875 20.8704 60.995 20.8313 60.9724L20.526 60.7961L19.1096 63.2474C19.0871 63.288 19.054 63.2956 19.0149 63.273L19.0134 63.27ZM21.0884 64.3653L20.6854 64.1604C20.6463 64.1408 20.6358 64.1091 20.6508 64.0639L20.8568 63.5668L20.5817 63.4282L20.305 63.8907C20.2779 63.9299 20.2449 63.9389 20.2073 63.9193L19.8043 63.7144C19.7622 63.6933 19.7562 63.6632 19.7817 63.6255L21.6192 60.8082C21.6462 60.769 21.6793 60.7615 21.7214 60.781L22.3063 61.0778C22.3469 61.0989 22.3605 61.1321 22.3454 61.1758L21.1741 64.3306C21.1591 64.3758 21.1305 64.3864 21.0899 64.3653H21.0884ZM23.1108 65.2481L22.8176 65.1246C22.7995 65.1171 22.7845 65.1035 22.7725 65.0839C22.7604 65.0643 22.7559 65.0463 22.7559 65.0282L22.9093 63.3046L22.2718 64.8188C22.2537 64.8609 22.2236 64.8745 22.18 64.8564L21.7726 64.6847C21.7305 64.6666 21.7169 64.6365 21.735 64.5928L23.0326 61.5102C23.0506 61.4681 23.0807 61.4545 23.1243 61.4726L23.4265 61.6006C23.4446 61.6082 23.4596 61.6217 23.4717 61.6413C23.4837 61.6609 23.4882 61.679 23.4882 61.6971L23.3438 63.3709L23.9618 61.9035C23.9799 61.8613 24.01 61.8477 24.0536 61.8658L24.461 62.0376C24.5031 62.0556 24.5167 62.0858 24.4986 62.1295L23.201 65.212C23.183 65.2542 23.1529 65.2677 23.1093 65.2496L23.1108 65.2481ZM24.7392 65.7619C24.7242 65.8056 24.6941 65.8206 24.6505 65.8056L24.2325 65.6609C24.2175 65.6549 24.2039 65.6444 24.1949 65.6263C24.1859 65.6097 24.1829 65.5901 24.1904 65.5721L25.1136 62.8948L24.7843 62.7818C24.7407 62.7668 24.7257 62.7366 24.7407 62.6929L24.8851 62.2741C24.9001 62.2304 24.9302 62.2153 24.9738 62.2304L26.1857 62.6492C26.2293 62.6643 26.2444 62.6944 26.2293 62.7381L26.085 63.157C26.0699 63.2007 26.0399 63.2157 25.9963 63.2007L25.6624 63.0862L24.7392 65.7634V65.7619ZM26.1902 66.2832L25.7662 66.1596C25.7211 66.1461 25.706 66.1174 25.7181 66.0738L26.6488 62.8617C26.6624 62.8165 26.6909 62.8014 26.7345 62.8135L27.1586 62.937C27.2037 62.9506 27.2187 62.9792 27.2067 63.0229L26.2759 66.235C26.2624 66.2802 26.2338 66.2952 26.1902 66.2832ZM28.4276 66.8391L28.1179 66.7683C28.0983 66.7638 28.0818 66.7532 28.0667 66.7367C28.0517 66.7201 28.0427 66.702 28.0412 66.6839L27.8968 64.9604L27.5285 66.5604C27.5179 66.6056 27.4909 66.6237 27.4457 66.6131L27.0142 66.5137C26.9691 66.5031 26.9511 66.476 26.9616 66.4308L27.7104 63.1705C27.7209 63.1253 27.748 63.1072 27.7931 63.1178L28.1134 63.1916C28.1329 63.1961 28.1494 63.2067 28.1645 63.2233C28.1795 63.2398 28.1885 63.2579 28.19 63.276L28.3359 64.9498L28.6923 63.398C28.7028 63.3528 28.7298 63.3347 28.775 63.3453L29.2065 63.4447C29.2516 63.4553 29.2697 63.4824 29.2591 63.5276L28.5103 66.7879C28.4998 66.8331 28.4727 66.8512 28.4276 66.8406V66.8391ZM30.9688 63.8138L30.8981 64.2508C30.8906 64.296 30.8635 64.3155 30.8184 64.308L30.259 64.2176L30.1448 64.9257L30.6304 65.0041C30.6755 65.0116 30.6951 65.0387 30.6876 65.0839L30.6169 65.5208C30.6094 65.5675 30.5823 65.5856 30.5372 65.5781L30.0515 65.4997L29.8891 66.5077L30.4485 66.5981C30.4936 66.6056 30.5132 66.6327 30.5056 66.6779L30.435 67.1148C30.4275 67.16 30.4004 67.1796 30.3553 67.1721L29.2907 67.0003C29.2456 66.9928 29.226 66.9657 29.2336 66.9205L29.7659 63.618C29.7734 63.5728 29.8004 63.5532 29.8455 63.5607L30.9101 63.7325C30.9552 63.74 30.9748 63.7671 30.9673 63.8123L30.9688 63.8138Z" fill="#383EBE"/>
<path d="M20.8688 62.9476L21.0733 63.0501L21.5951 61.8041L21.559 61.786L20.8688 62.9476Z" fill="#383EBE"/>
</g>
<defs>
<clipPath id="clip0_5_89">
<rect width="70" height="70" fill="white"/>
</clipPath>
</defs>
</svg>
