<svg width="60" height="60" viewBox="0 0 60 60" fill="none" xmlns="http://www.w3.org/2000/svg">
<path d="M22.8696 0.218783C20.5797 0.698797 18.493 1.70719 16.8698 3.12397C14.3477 5.32076 13.1887 7.81756 13.3772 10.6627C13.4785 12.1873 13.7394 13.0157 14.551 14.4441C17.1019 18.8977 23.2902 21.3228 28.8266 20.0261C33.2757 18.9815 36.6966 15.9686 37.7691 12.1628C38.1025 10.9744 37.9864 8.52534 37.537 7.36081C36.2471 3.9995 33.1308 1.41882 29.0587 0.338174C27.5804 -0.0573466 24.4352 -0.117348 22.8696 0.218783ZM28.3195 2.13945C32.7398 3.07559 35.6529 6.24527 35.6529 10.1227C35.6529 12.5357 34.754 14.4086 32.827 16.017C30.7691 17.7338 28.0734 18.5738 25.0731 18.4299C19.4066 18.166 15.3914 14.4086 15.696 9.64271C15.9133 6.01751 18.9572 2.92008 23.1165 2.09169C24.4352 1.82781 26.9713 1.85168 28.3195 2.13945Z" fill="#272937"/>
<path d="M10.8407 22.7273C8.24619 23.3157 6.348 24.2518 4.49268 25.8603C2.79776 27.337 1.60918 29.0061 0.826393 31.0106C0.0147833 33.0996 0 33.2196 0 42.943V51.9224L0.333367 52.1747L0.666733 52.4385H11.8408C22.2609 52.4385 23.0296 52.4263 23.3194 52.2347C23.8124 51.8863 23.856 51.3463 23.4354 50.9263L23.0732 50.5779L17.2619 50.5418L11.4505 50.5056V43.4591C11.4505 35.8603 11.4505 35.9565 10.6677 35.6558C10.2043 35.4636 9.50796 35.632 9.2766 36.0042C9.18938 36.1365 9.13172 39.0171 9.13172 43.363V50.5179H5.72562H2.31952V42.223C2.31952 34.348 2.3343 33.868 2.60928 32.7274C3.60937 28.6577 6.5801 25.777 10.8991 24.6841L11.9568 24.4202L25.0003 24.3725C38.8989 24.3247 39.3047 24.3486 41.2036 24.9125C43.8269 25.6925 46.0156 27.3854 47.4504 29.7144C47.8562 30.3867 48.1607 30.5906 48.769 30.5906C49.2761 30.5906 49.8564 30.0867 49.8564 29.6544C49.8564 29.2822 48.7838 27.7215 47.8126 26.6654C46.1457 24.877 43.4648 23.4124 40.6529 22.764L39.4939 22.4879L25.7978 22.4757L12.1017 22.4518L10.8407 22.7273Z" fill="#272937"/>
<path d="M39.233 31.8507C39.0733 31.9351 38.6535 32.7029 38.2617 33.5552C37.711 34.8036 37.5225 35.092 37.3052 35.0797C37.1456 35.0675 36.2039 34.7797 35.189 34.4313C33.8843 33.9752 33.2612 33.8191 33.0003 33.8791C32.5509 33.963 28.0146 38.0804 27.8697 38.5127C27.7973 38.741 28.0294 39.2211 28.8986 40.5895C29.5218 41.574 30 42.3901 29.9712 42.414C29.9423 42.4262 28.9563 42.9063 27.7537 43.4824C26.3766 44.1424 25.5221 44.623 25.3913 44.8147C25.2316 45.0786 25.29 45.4869 25.7971 47.8876C26.1156 49.4122 26.449 50.7567 26.5215 50.8889C26.7536 51.2373 27.0574 51.3212 29.3621 51.6573C30.5507 51.8373 31.5508 51.9935 31.5796 52.0173C31.6084 52.0412 31.4924 52.8696 31.3187 53.8419C30.9705 55.8225 30.9417 56.3148 31.159 56.6387C31.3623 56.9387 37.2749 59.52 37.782 59.52C38.1006 59.52 38.5936 59.22 39.9847 58.1755L41.7676 56.8432L43.6081 58.4277C45.2166 59.82 45.4923 60 45.8981 60C46.1731 60 47.6662 59.52 49.5067 58.8355C51.8839 57.9593 52.6807 57.611 52.7968 57.3948C52.898 57.1909 52.898 56.5664 52.7968 55.2219C52.6955 54.0696 52.6807 53.3129 52.7679 53.2651C52.8404 53.229 53.9854 53.109 55.29 53.0012C56.6087 52.8929 57.7973 52.749 57.9421 52.689C58.1018 52.6173 58.2903 52.4129 58.3768 52.2328C58.6665 51.6567 60 47.0586 60 46.687C60 46.267 59.5506 45.9308 57.3915 44.7541C56.6375 44.3341 55.9856 43.9857 55.9567 43.9618C55.9279 43.9379 56.2029 43.5057 56.5658 43.0134C56.9428 42.5212 57.5511 41.705 57.9281 41.2127C58.348 40.6366 58.5948 40.1805 58.5801 39.9521C58.5801 39.6882 58.087 39.0876 56.6811 37.5869C54.3623 35.1256 54.1162 34.9101 53.6232 34.9101C53.4199 34.9101 52.3769 35.1501 51.3044 35.4501C50.2319 35.7501 49.2613 35.9785 49.1453 35.9663C49.0292 35.9424 48.5798 35.1018 48.1016 34.0095C47.5797 32.8088 47.1451 32.0049 46.9418 31.8727C46.6661 31.6927 46.2462 31.6688 43.0575 31.6688C40.2323 31.6829 39.4355 31.719 39.233 31.8507ZM46.2329 35.3565C46.6387 36.341 47.0734 37.2533 47.1894 37.4094C47.3055 37.5533 47.6825 37.7939 48.0299 37.9378L48.653 38.1778L50.8993 37.5894L53.1604 36.9894L54.5516 38.4661C55.3196 39.27 55.9427 40.0029 55.9427 40.0868C55.9427 40.159 55.4356 40.9029 54.7977 41.7436C54.1746 42.572 53.5951 43.3642 53.5079 43.5081C53.3482 43.772 53.4206 44.5404 53.638 44.8888C53.7104 44.9965 54.6092 45.561 55.6522 46.1255C56.6811 46.6894 57.5363 47.1817 57.5363 47.2178C57.5363 47.3978 56.4638 50.8314 56.3914 50.903C56.3478 50.9508 55.1592 51.083 53.768 51.2153L51.246 51.4436L50.753 51.9114L50.2762 52.3792L50.3634 53.6998C50.407 54.4205 50.4795 55.3205 50.5231 55.6805L50.6103 56.3405L48.4652 57.145L46.3054 57.9373L44.4789 56.3889L42.6531 54.8405H41.8415H41.0299L39.3195 56.1011C38.3918 56.7973 37.5514 57.3618 37.4789 57.3495C37.102 57.3373 33.4061 55.5727 33.4357 55.4289C33.4504 55.3327 33.6094 54.3843 33.7831 53.3159L34.1024 51.3714L33.7114 50.8791C33.4941 50.6153 33.1755 50.3391 33.001 50.2908C32.8273 50.2307 31.7984 50.063 30.7259 49.9185C29.6533 49.7624 28.6968 49.5824 28.6096 49.5101C28.4647 49.4024 27.798 46.5449 27.7692 45.921C27.7544 45.7772 28.3923 45.4049 29.9283 44.6604C32.0586 43.6281 32.1022 43.6042 32.3631 43.0159L32.6388 42.4158L31.5227 40.6391L30.4213 38.85L31.4066 37.9378C31.9425 37.4455 32.6529 36.7855 32.9862 36.4855L33.5658 35.9571L35.7544 36.6894C38.0008 37.4455 38.4502 37.5416 38.856 37.2777C39.1746 37.0739 39.3054 36.8455 39.9285 35.3932C40.2331 34.6971 40.5228 34.0125 40.5953 33.8564C40.7113 33.5925 40.769 33.5925 43.0878 33.5925H45.4649L46.2329 35.3565Z" fill="#272937"/>
<path d="M41.5799 39.2339C39.8258 39.4623 38.2462 40.1945 36.8551 41.4307C35.8261 42.3552 35.1594 43.3997 34.8549 44.5759C34.5939 45.6204 34.5939 46.0404 34.8549 47.0727C35.1446 48.2372 35.855 49.3295 36.8987 50.254C38.5219 51.7063 40.4349 52.4269 42.696 52.4391C44.9571 52.4391 46.6668 51.8391 48.3337 50.4585C51.5365 47.8056 51.5513 43.8559 48.3484 41.2152C46.4495 39.6539 43.9711 38.9339 41.5799 39.2339ZM44.7102 41.3584C46.9425 42.0068 48.2176 43.4475 48.3773 45.4881C48.4349 46.3282 48.3921 46.6888 48.1452 47.3488C47.5945 48.8011 46.2322 49.9417 44.5218 50.3501C43.3191 50.6385 41.333 50.5424 40.2604 50.134C37.4346 49.0533 36.2312 46.2443 37.5359 43.7358C37.9269 42.9797 39.1007 41.9829 40.0579 41.5991C41.4202 41.0468 43.2903 40.9507 44.7102 41.3584Z" fill="#272937"/>
</svg>
