<svg width="1024" height="1024" viewBox="0 0 1024 1024" fill="none" xmlns="http://www.w3.org/2000/svg">
<g clip-path="url(#clip0_17_1067)">
<path d="M-2.57492e-05 9.26313C5.11588 9.26313 9.26313 5.11588 9.26313 -2.57492e-05C9.26313 -5.11593 5.11588 -9.26318 -2.57492e-05 -9.26318C-5.11593 -9.26318 -9.26318 -5.11593 -9.26318 -2.57492e-05C-9.26318 5.11588 -5.11593 9.26313 -2.57492e-05 9.26313Z" fill="#7CDF64"/>
<path d="M85.3332 9.26313C90.4491 9.26313 94.5964 5.11588 94.5964 -2.57492e-05C94.5964 -5.11593 90.4491 -9.26318 85.3332 -9.26318C80.2173 -9.26318 76.0701 -5.11593 76.0701 -2.57492e-05C76.0701 5.11588 80.2173 9.26313 85.3332 9.26313Z" fill="#7CDF64"/>
<path d="M170.667 9.26313C175.783 9.26313 179.93 5.11588 179.93 -2.57492e-05C179.93 -5.11593 175.783 -9.26318 170.667 -9.26318C165.551 -9.26318 161.404 -5.11593 161.404 -2.57492e-05C161.404 5.11588 165.551 9.26313 170.667 9.26313Z" fill="#7CDF64"/>
<path d="M256 9.26313C261.116 9.26313 265.263 5.11588 265.263 -2.57492e-05C265.263 -5.11593 261.116 -9.26318 256 -9.26318C250.884 -9.26318 246.737 -5.11593 246.737 -2.57492e-05C246.737 5.11588 250.884 9.26313 256 9.26313Z" fill="#7CDF64"/>
<path d="M341.333 9.26313C346.449 9.26313 350.596 5.11588 350.596 -2.57492e-05C350.596 -5.11593 346.449 -9.26318 341.333 -9.26318C336.217 -9.26318 332.07 -5.11593 332.07 -2.57492e-05C332.07 5.11588 336.217 9.26313 341.333 9.26313Z" fill="#7CDF64"/>
<path d="M426.667 9.26313C431.783 9.26313 435.93 5.11588 435.93 -2.57492e-05C435.93 -5.11593 431.783 -9.26318 426.667 -9.26318C421.551 -9.26318 417.404 -5.11593 417.404 -2.57492e-05C417.404 5.11588 421.551 9.26313 426.667 9.26313Z" fill="#7CDF64"/>
<path d="M512 9.26313C517.116 9.26313 521.263 5.11588 521.263 -2.57492e-05C521.263 -5.11593 517.116 -9.26318 512 -9.26318C506.884 -9.26318 502.737 -5.11593 502.737 -2.57492e-05C502.737 5.11588 506.884 9.26313 512 9.26313Z" fill="#7CDF64"/>
<path d="M597.333 9.26313C602.449 9.26313 606.596 5.11588 606.596 -2.57492e-05C606.596 -5.11593 602.449 -9.26318 597.333 -9.26318C592.217 -9.26318 588.07 -5.11593 588.07 -2.57492e-05C588.07 5.11588 592.217 9.26313 597.333 9.26313Z" fill="#7CDF64"/>
<path d="M682.666 9.26313C687.782 9.26313 691.93 5.11588 691.93 -2.57492e-05C691.93 -5.11593 687.782 -9.26318 682.666 -9.26318C677.551 -9.26318 673.403 -5.11593 673.403 -2.57492e-05C673.403 5.11588 677.551 9.26313 682.666 9.26313Z" fill="#7CDF64"/>
<path d="M768 9.26313C773.116 9.26313 777.263 5.11588 777.263 -2.57492e-05C777.263 -5.11593 773.116 -9.26318 768 -9.26318C762.884 -9.26318 758.737 -5.11593 758.737 -2.57492e-05C758.737 5.11588 762.884 9.26313 768 9.26313Z" fill="#7CDF64"/>
<path d="M853.333 9.26313C858.449 9.26313 862.596 5.11588 862.596 -2.57492e-05C862.596 -5.11593 858.449 -9.26318 853.333 -9.26318C848.217 -9.26318 844.07 -5.11593 844.07 -2.57492e-05C844.07 5.11588 848.217 9.26313 853.333 9.26313Z" fill="#7CDF64"/>
<path d="M938.666 9.26313C943.782 9.26313 947.93 5.11588 947.93 -2.57492e-05C947.93 -5.11593 943.782 -9.26318 938.666 -9.26318C933.551 -9.26318 929.403 -5.11593 929.403 -2.57492e-05C929.403 5.11588 933.551 9.26313 938.666 9.26313Z" fill="#7CDF64"/>
<path d="M1024 9.26313C1029.12 9.26313 1033.26 5.11588 1033.26 -2.57492e-05C1033.26 -5.11593 1029.12 -9.26318 1024 -9.26318C1018.88 -9.26318 1014.74 -5.11593 1014.74 -2.57492e-05C1014.74 5.11588 1018.88 9.26313 1024 9.26313Z" fill="#7CDF64"/>
<path d="M-2.57492e-05 94.5965C5.11588 94.5965 9.26313 90.4492 9.26313 85.3333C9.26313 80.2174 5.11588 76.0702 -2.57492e-05 76.0702C-5.11593 76.0702 -9.26318 80.2174 -9.26318 85.3333C-9.26318 90.4492 -5.11593 94.5965 -2.57492e-05 94.5965Z" fill="#7CDF64"/>
<path d="M85.3332 94.5965C90.4491 94.5965 94.5964 90.4492 94.5964 85.3333C94.5964 80.2174 90.4491 76.0702 85.3332 76.0702C80.2173 76.0702 76.0701 80.2174 76.0701 85.3333C76.0701 90.4492 80.2173 94.5965 85.3332 94.5965Z" fill="#7CDF64"/>
<path d="M170.667 94.5965C175.783 94.5965 179.93 90.4492 179.93 85.3333C179.93 80.2174 175.783 76.0702 170.667 76.0702C165.551 76.0702 161.404 80.2174 161.404 85.3333C161.404 90.4492 165.551 94.5965 170.667 94.5965Z" fill="#7CDF64"/>
<path d="M256 94.5965C261.116 94.5965 265.263 90.4492 265.263 85.3333C265.263 80.2174 261.116 76.0702 256 76.0702C250.884 76.0702 246.737 80.2174 246.737 85.3333C246.737 90.4492 250.884 94.5965 256 94.5965Z" fill="#7CDF64"/>
<path d="M341.333 94.5965C346.449 94.5965 350.596 90.4492 350.596 85.3333C350.596 80.2174 346.449 76.0702 341.333 76.0702C336.217 76.0702 332.07 80.2174 332.07 85.3333C332.07 90.4492 336.217 94.5965 341.333 94.5965Z" stroke="#7CDF64" stroke-width="3.5"/>
<path d="M426.667 94.5965C431.783 94.5965 435.93 90.4492 435.93 85.3333C435.93 80.2174 431.783 76.0702 426.667 76.0702C421.551 76.0702 417.404 80.2174 417.404 85.3333C417.404 90.4492 421.551 94.5965 426.667 94.5965Z" fill="#7CDF64"/>
<path d="M512 94.5965C517.116 94.5965 521.263 90.4492 521.263 85.3333C521.263 80.2174 517.116 76.0702 512 76.0702C506.884 76.0702 502.737 80.2174 502.737 85.3333C502.737 90.4492 506.884 94.5965 512 94.5965Z" fill="#7CDF64"/>
<path d="M597.333 94.5965C602.449 94.5965 606.596 90.4492 606.596 85.3333C606.596 80.2174 602.449 76.0702 597.333 76.0702C592.217 76.0702 588.07 80.2174 588.07 85.3333C588.07 90.4492 592.217 94.5965 597.333 94.5965Z" fill="#7CDF64"/>
<path d="M682.666 94.5965C687.782 94.5965 691.93 90.4492 691.93 85.3333C691.93 80.2174 687.782 76.0702 682.666 76.0702C677.551 76.0702 673.403 80.2174 673.403 85.3333C673.403 90.4492 677.551 94.5965 682.666 94.5965Z" fill="#7CDF64"/>
<path d="M768 94.5965C773.116 94.5965 777.263 90.4492 777.263 85.3333C777.263 80.2174 773.116 76.0702 768 76.0702C762.884 76.0702 758.737 80.2174 758.737 85.3333C758.737 90.4492 762.884 94.5965 768 94.5965Z" fill="#7CDF64"/>
<path d="M853.333 94.5965C858.449 94.5965 862.596 90.4492 862.596 85.3333C862.596 80.2174 858.449 76.0702 853.333 76.0702C848.217 76.0702 844.07 80.2174 844.07 85.3333C844.07 90.4492 848.217 94.5965 853.333 94.5965Z" stroke="#7CDF64" stroke-width="3.5"/>
<path d="M938.666 94.5965C943.782 94.5965 947.93 90.4492 947.93 85.3333C947.93 80.2174 943.782 76.0702 938.666 76.0702C933.551 76.0702 929.403 80.2174 929.403 85.3333C929.403 90.4492 933.551 94.5965 938.666 94.5965Z" stroke="#7CDF64" stroke-width="3.5"/>
<path d="M1024 94.5965C1029.12 94.5965 1033.26 90.4492 1033.26 85.3333C1033.26 80.2174 1029.12 76.0702 1024 76.0702C1018.88 76.0702 1014.74 80.2174 1014.74 85.3333C1014.74 90.4492 1018.88 94.5965 1024 94.5965Z" fill="#7CDF64"/>
<path d="M-2.57492e-05 179.93C5.11588 179.93 9.26313 175.782 9.26313 170.667C9.26313 165.551 5.11588 161.403 -2.57492e-05 161.403C-5.11593 161.403 -9.26318 165.551 -9.26318 170.667C-9.26318 175.782 -5.11593 179.93 -2.57492e-05 179.93Z" fill="#7CDF64"/>
<path d="M85.3332 179.93C90.4491 179.93 94.5964 175.782 94.5964 170.667C94.5964 165.551 90.4491 161.403 85.3332 161.403C80.2173 161.403 76.0701 165.551 76.0701 170.667C76.0701 175.782 80.2173 179.93 85.3332 179.93Z" fill="#7CDF64"/>
<path d="M170.667 179.93C175.783 179.93 179.93 175.782 179.93 170.667C179.93 165.551 175.783 161.403 170.667 161.403C165.551 161.403 161.404 165.551 161.404 170.667C161.404 175.782 165.551 179.93 170.667 179.93Z" fill="#7CDF64"/>
<path d="M256 179.93C261.116 179.93 265.263 175.782 265.263 170.667C265.263 165.551 261.116 161.403 256 161.403C250.884 161.403 246.737 165.551 246.737 170.667C246.737 175.782 250.884 179.93 256 179.93Z" fill="#7CDF64"/>
<path d="M341.333 179.93C346.449 179.93 350.596 175.782 350.596 170.667C350.596 165.551 346.449 161.403 341.333 161.403C336.217 161.403 332.07 165.551 332.07 170.667C332.07 175.782 336.217 179.93 341.333 179.93Z" stroke="#7CDF64" stroke-width="3.5"/>
<path d="M426.667 179.93C431.783 179.93 435.93 175.782 435.93 170.667C435.93 165.551 431.783 161.403 426.667 161.403C421.551 161.403 417.404 165.551 417.404 170.667C417.404 175.782 421.551 179.93 426.667 179.93Z" fill="#7CDF64"/>
<path d="M512 179.93C517.116 179.93 521.263 175.782 521.263 170.667C521.263 165.551 517.116 161.403 512 161.403C506.884 161.403 502.737 165.551 502.737 170.667C502.737 175.782 506.884 179.93 512 179.93Z" fill="#7CDF64"/>
<path d="M597.333 179.93C602.449 179.93 606.596 175.782 606.596 170.667C606.596 165.551 602.449 161.403 597.333 161.403C592.217 161.403 588.07 165.551 588.07 170.667C588.07 175.782 592.217 179.93 597.333 179.93Z" fill="#7CDF64"/>
<path d="M682.666 179.93C687.782 179.93 691.93 175.782 691.93 170.667C691.93 165.551 687.782 161.403 682.666 161.403C677.551 161.403 673.403 165.551 673.403 170.667C673.403 175.782 677.551 179.93 682.666 179.93Z" stroke="#7CDF64" stroke-width="3.5"/>
<path d="M768 179.93C773.116 179.93 777.263 175.782 777.263 170.667C777.263 165.551 773.116 161.403 768 161.403C762.884 161.403 758.737 165.551 758.737 170.667C758.737 175.782 762.884 179.93 768 179.93Z" fill="#7CDF64"/>
<path d="M853.333 179.93C858.449 179.93 862.596 175.782 862.596 170.667C862.596 165.551 858.449 161.403 853.333 161.403C848.217 161.403 844.07 165.551 844.07 170.667C844.07 175.782 848.217 179.93 853.333 179.93Z" fill="#7CDF64"/>
<path d="M938.666 179.93C943.782 179.93 947.93 175.782 947.93 170.667C947.93 165.551 943.782 161.403 938.666 161.403C933.551 161.403 929.403 165.551 929.403 170.667C929.403 175.782 933.551 179.93 938.666 179.93Z" fill="#7CDF64"/>
<path d="M1024 179.93C1029.12 179.93 1033.26 175.782 1033.26 170.667C1033.26 165.551 1029.12 161.403 1024 161.403C1018.88 161.403 1014.74 165.551 1014.74 170.667C1014.74 175.782 1018.88 179.93 1024 179.93Z" fill="#7CDF64"/>
<path d="M-2.57492e-05 265.263C5.11588 265.263 9.26313 261.116 9.26313 256C9.26313 250.884 5.11588 246.737 -2.57492e-05 246.737C-5.11593 246.737 -9.26318 250.884 -9.26318 256C-9.26318 261.116 -5.11593 265.263 -2.57492e-05 265.263Z" fill="#7CDF64"/>
<path d="M85.3332 265.263C90.4491 265.263 94.5964 261.116 94.5964 256C94.5964 250.884 90.4491 246.737 85.3332 246.737C80.2173 246.737 76.0701 250.884 76.0701 256C76.0701 261.116 80.2173 265.263 85.3332 265.263Z" stroke="#7CDF64" stroke-width="3.5"/>
<path d="M170.667 265.263C175.783 265.263 179.93 261.116 179.93 256C179.93 250.884 175.783 246.737 170.667 246.737C165.551 246.737 161.404 250.884 161.404 256C161.404 261.116 165.551 265.263 170.667 265.263Z" fill="#7CDF64"/>
<path d="M256 265.263C261.116 265.263 265.263 261.116 265.263 256C265.263 250.884 261.116 246.737 256 246.737C250.884 246.737 246.737 250.884 246.737 256C246.737 261.116 250.884 265.263 256 265.263Z" fill="#7CDF64"/>
<path d="M341.333 265.263C346.449 265.263 350.596 261.116 350.596 256C350.596 250.884 346.449 246.737 341.333 246.737C336.217 246.737 332.07 250.884 332.07 256C332.07 261.116 336.217 265.263 341.333 265.263Z" fill="#7CDF64"/>
<path d="M426.667 265.263C431.783 265.263 435.93 261.116 435.93 256C435.93 250.884 431.783 246.737 426.667 246.737C421.551 246.737 417.404 250.884 417.404 256C417.404 261.116 421.551 265.263 426.667 265.263Z" stroke="#7CDF64" stroke-width="3.5"/>
<path d="M512 265.263C517.116 265.263 521.263 261.116 521.263 256C521.263 250.884 517.116 246.737 512 246.737C506.884 246.737 502.737 250.884 502.737 256C502.737 261.116 506.884 265.263 512 265.263Z" fill="#7CDF64"/>
<path d="M597.333 265.263C602.449 265.263 606.596 261.116 606.596 256C606.596 250.884 602.449 246.737 597.333 246.737C592.217 246.737 588.07 250.884 588.07 256C588.07 261.116 592.217 265.263 597.333 265.263Z" fill="#7CDF64"/>
<path d="M682.666 265.263C687.782 265.263 691.93 261.116 691.93 256C691.93 250.884 687.782 246.737 682.666 246.737C677.551 246.737 673.403 250.884 673.403 256C673.403 261.116 677.551 265.263 682.666 265.263Z" fill="#7CDF64"/>
<path d="M768 265.263C773.116 265.263 777.263 261.116 777.263 256C777.263 250.884 773.116 246.737 768 246.737C762.884 246.737 758.737 250.884 758.737 256C758.737 261.116 762.884 265.263 768 265.263Z" fill="#7CDF64"/>
<path d="M853.333 265.263C858.449 265.263 862.596 261.116 862.596 256C862.596 250.884 858.449 246.737 853.333 246.737C848.217 246.737 844.07 250.884 844.07 256C844.07 261.116 848.217 265.263 853.333 265.263Z" fill="#7CDF64"/>
<path d="M938.666 265.263C943.782 265.263 947.93 261.116 947.93 256C947.93 250.884 943.782 246.737 938.666 246.737C933.551 246.737 929.403 250.884 929.403 256C929.403 261.116 933.551 265.263 938.666 265.263Z" fill="#7CDF64"/>
<path d="M1024 265.263C1029.12 265.263 1033.26 261.116 1033.26 256C1033.26 250.884 1029.12 246.737 1024 246.737C1018.88 246.737 1014.74 250.884 1014.74 256C1014.74 261.116 1018.88 265.263 1024 265.263Z" fill="#7CDF64"/>
<path d="M-2.57492e-05 350.596C5.11588 350.596 9.26313 346.449 9.26313 341.333C9.26313 336.217 5.11588 332.07 -2.57492e-05 332.07C-5.11593 332.07 -9.26318 336.217 -9.26318 341.333C-9.26318 346.449 -5.11593 350.596 -2.57492e-05 350.596Z" fill="#7CDF64"/>
<path d="M85.3332 350.596C90.4491 350.596 94.5964 346.449 94.5964 341.333C94.5964 336.217 90.4491 332.07 85.3332 332.07C80.2173 332.07 76.0701 336.217 76.0701 341.333C76.0701 346.449 80.2173 350.596 85.3332 350.596Z" stroke="#7CDF64" stroke-width="3.5"/>
<path d="M170.667 350.596C175.783 350.596 179.93 346.449 179.93 341.333C179.93 336.217 175.783 332.07 170.667 332.07C165.551 332.07 161.404 336.217 161.404 341.333C161.404 346.449 165.551 350.596 170.667 350.596Z" fill="#7CDF64"/>
<path d="M256 350.596C261.116 350.596 265.263 346.449 265.263 341.333C265.263 336.217 261.116 332.07 256 332.07C250.884 332.07 246.737 336.217 246.737 341.333C246.737 346.449 250.884 350.596 256 350.596Z" fill="#7CDF64"/>
<path d="M341.333 350.596C346.449 350.596 350.596 346.449 350.596 341.333C350.596 336.217 346.449 332.07 341.333 332.07C336.217 332.07 332.07 336.217 332.07 341.333C332.07 346.449 336.217 350.596 341.333 350.596Z" stroke="#7CDF64" stroke-width="3.5"/>
<path d="M426.667 350.596C431.783 350.596 435.93 346.449 435.93 341.333C435.93 336.217 431.783 332.07 426.667 332.07C421.551 332.07 417.404 336.217 417.404 341.333C417.404 346.449 421.551 350.596 426.667 350.596Z" stroke="#7CDF64" stroke-width="3.5"/>
<path d="M512 350.596C517.116 350.596 521.263 346.449 521.263 341.333C521.263 336.217 517.116 332.07 512 332.07C506.884 332.07 502.737 336.217 502.737 341.333C502.737 346.449 506.884 350.596 512 350.596Z" fill="#7CDF64"/>
<path d="M597.333 350.596C602.449 350.596 606.596 346.449 606.596 341.333C606.596 336.217 602.449 332.07 597.333 332.07C592.217 332.07 588.07 336.217 588.07 341.333C588.07 346.449 592.217 350.596 597.333 350.596Z" stroke="#7CDF64" stroke-width="3.5"/>
<path d="M682.666 350.596C687.782 350.596 691.93 346.449 691.93 341.333C691.93 336.217 687.782 332.07 682.666 332.07C677.551 332.07 673.403 336.217 673.403 341.333C673.403 346.449 677.551 350.596 682.666 350.596Z" fill="#7CDF64"/>
<path d="M768 350.596C773.116 350.596 777.263 346.449 777.263 341.333C777.263 336.217 773.116 332.07 768 332.07C762.884 332.07 758.737 336.217 758.737 341.333C758.737 346.449 762.884 350.596 768 350.596Z" fill="#7CDF64"/>
<path d="M853.333 350.596C858.449 350.596 862.596 346.449 862.596 341.333C862.596 336.217 858.449 332.07 853.333 332.07C848.217 332.07 844.07 336.217 844.07 341.333C844.07 346.449 848.217 350.596 853.333 350.596Z" fill="#7CDF64"/>
<path d="M938.666 350.596C943.782 350.596 947.93 346.449 947.93 341.333C947.93 336.217 943.782 332.07 938.666 332.07C933.551 332.07 929.403 336.217 929.403 341.333C929.403 346.449 933.551 350.596 938.666 350.596Z" fill="#7CDF64"/>
<path d="M1024 350.596C1029.12 350.596 1033.26 346.449 1033.26 341.333C1033.26 336.217 1029.12 332.07 1024 332.07C1018.88 332.07 1014.74 336.217 1014.74 341.333C1014.74 346.449 1018.88 350.596 1024 350.596Z" fill="#7CDF64"/>
<path d="M-2.57492e-05 435.93C5.11588 435.93 9.26313 431.783 9.26313 426.667C9.26313 421.551 5.11588 417.404 -2.57492e-05 417.404C-5.11593 417.404 -9.26318 421.551 -9.26318 426.667C-9.26318 431.783 -5.11593 435.93 -2.57492e-05 435.93Z" fill="#7CDF64"/>
<path d="M85.3332 435.93C90.4491 435.93 94.5964 431.783 94.5964 426.667C94.5964 421.551 90.4491 417.404 85.3332 417.404C80.2173 417.404 76.0701 421.551 76.0701 426.667C76.0701 431.783 80.2173 435.93 85.3332 435.93Z" stroke="#7CDF64" stroke-width="3.5"/>
<path d="M170.667 435.93C175.783 435.93 179.93 431.783 179.93 426.667C179.93 421.551 175.783 417.404 170.667 417.404C165.551 417.404 161.404 421.551 161.404 426.667C161.404 431.783 165.551 435.93 170.667 435.93Z" fill="#7CDF64"/>
<path d="M256 435.93C261.116 435.93 265.263 431.783 265.263 426.667C265.263 421.551 261.116 417.404 256 417.404C250.884 417.404 246.737 421.551 246.737 426.667C246.737 431.783 250.884 435.93 256 435.93Z" stroke="#7CDF64" stroke-width="3.5"/>
<path d="M341.333 435.93C346.449 435.93 350.596 431.783 350.596 426.667C350.596 421.551 346.449 417.404 341.333 417.404C336.217 417.404 332.07 421.551 332.07 426.667C332.07 431.783 336.217 435.93 341.333 435.93Z" fill="#7CDF64"/>
<path d="M426.667 435.93C431.783 435.93 435.93 431.783 435.93 426.667C435.93 421.551 431.783 417.404 426.667 417.404C421.551 417.404 417.404 421.551 417.404 426.667C417.404 431.783 421.551 435.93 426.667 435.93Z" fill="#7CDF64"/>
<path d="M512 435.93C517.116 435.93 521.263 431.783 521.263 426.667C521.263 421.551 517.116 417.404 512 417.404C506.884 417.404 502.737 421.551 502.737 426.667C502.737 431.783 506.884 435.93 512 435.93Z" fill="#7CDF64"/>
<path d="M597.333 435.93C602.449 435.93 606.596 431.783 606.596 426.667C606.596 421.551 602.449 417.404 597.333 417.404C592.217 417.404 588.07 421.551 588.07 426.667C588.07 431.783 592.217 435.93 597.333 435.93Z" fill="#7CDF64"/>
<path d="M682.666 435.93C687.782 435.93 691.93 431.783 691.93 426.667C691.93 421.551 687.782 417.404 682.666 417.404C677.551 417.404 673.403 421.551 673.403 426.667C673.403 431.783 677.551 435.93 682.666 435.93Z" fill="#7CDF64"/>
<path d="M768 435.93C773.116 435.93 777.263 431.783 777.263 426.667C777.263 421.551 773.116 417.404 768 417.404C762.884 417.404 758.737 421.551 758.737 426.667C758.737 431.783 762.884 435.93 768 435.93Z" fill="#7CDF64"/>
<path d="M853.333 435.93C858.449 435.93 862.596 431.783 862.596 426.667C862.596 421.551 858.449 417.404 853.333 417.404C848.217 417.404 844.07 421.551 844.07 426.667C844.07 431.783 848.217 435.93 853.333 435.93Z" fill="#7CDF64"/>
<path d="M938.666 435.93C943.782 435.93 947.93 431.783 947.93 426.667C947.93 421.551 943.782 417.404 938.666 417.404C933.551 417.404 929.403 421.551 929.403 426.667C929.403 431.783 933.551 435.93 938.666 435.93Z" fill="#7CDF64"/>
<path d="M1024 435.93C1029.12 435.93 1033.26 431.783 1033.26 426.667C1033.26 421.551 1029.12 417.404 1024 417.404C1018.88 417.404 1014.74 421.551 1014.74 426.667C1014.74 431.783 1018.88 435.93 1024 435.93Z" fill="#7CDF64"/>
<path d="M-2.57492e-05 521.263C5.11588 521.263 9.26313 517.116 9.26313 512C9.26313 506.884 5.11588 502.737 -2.57492e-05 502.737C-5.11593 502.737 -9.26318 506.884 -9.26318 512C-9.26318 517.116 -5.11593 521.263 -2.57492e-05 521.263Z" fill="#7CDF64"/>
<path d="M85.3332 521.263C90.4491 521.263 94.5964 517.116 94.5964 512C94.5964 506.884 90.4491 502.737 85.3332 502.737C80.2173 502.737 76.0701 506.884 76.0701 512C76.0701 517.116 80.2173 521.263 85.3332 521.263Z" fill="#7CDF64"/>
<path d="M170.667 521.263C175.783 521.263 179.93 517.116 179.93 512C179.93 506.884 175.783 502.737 170.667 502.737C165.551 502.737 161.404 506.884 161.404 512C161.404 517.116 165.551 521.263 170.667 521.263Z" fill="#7CDF64"/>
<path d="M256 521.263C261.116 521.263 265.263 517.116 265.263 512C265.263 506.884 261.116 502.737 256 502.737C250.884 502.737 246.737 506.884 246.737 512C246.737 517.116 250.884 521.263 256 521.263Z" stroke="#7CDF64" stroke-width="3.5"/>
<path d="M341.333 521.263C346.449 521.263 350.596 517.116 350.596 512C350.596 506.884 346.449 502.737 341.333 502.737C336.217 502.737 332.07 506.884 332.07 512C332.07 517.116 336.217 521.263 341.333 521.263Z" fill="#7CDF64"/>
<path d="M426.667 521.263C431.783 521.263 435.93 517.116 435.93 512C435.93 506.884 431.783 502.737 426.667 502.737C421.551 502.737 417.404 506.884 417.404 512C417.404 517.116 421.551 521.263 426.667 521.263Z" fill="#7CDF64"/>
<path d="M512 521.263C517.116 521.263 521.263 517.116 521.263 512C521.263 506.884 517.116 502.737 512 502.737C506.884 502.737 502.737 506.884 502.737 512C502.737 517.116 506.884 521.263 512 521.263Z" fill="#7CDF64"/>
<path d="M597.333 521.263C602.449 521.263 606.596 517.116 606.596 512C606.596 506.884 602.449 502.737 597.333 502.737C592.217 502.737 588.07 506.884 588.07 512C588.07 517.116 592.217 521.263 597.333 521.263Z" stroke="#7CDF64" stroke-width="3.5"/>
<path d="M682.666 521.263C687.782 521.263 691.93 517.116 691.93 512C691.93 506.884 687.782 502.737 682.666 502.737C677.551 502.737 673.403 506.884 673.403 512C673.403 517.116 677.551 521.263 682.666 521.263Z" fill="#7CDF64"/>
<path d="M768 521.263C773.116 521.263 777.263 517.116 777.263 512C777.263 506.884 773.116 502.737 768 502.737C762.884 502.737 758.737 506.884 758.737 512C758.737 517.116 762.884 521.263 768 521.263Z" fill="#7CDF64"/>
<path d="M853.333 521.263C858.449 521.263 862.596 517.116 862.596 512C862.596 506.884 858.449 502.737 853.333 502.737C848.217 502.737 844.07 506.884 844.07 512C844.07 517.116 848.217 521.263 853.333 521.263Z" fill="#7CDF64"/>
<path d="M938.666 521.263C943.782 521.263 947.93 517.116 947.93 512C947.93 506.884 943.782 502.737 938.666 502.737C933.551 502.737 929.403 506.884 929.403 512C929.403 517.116 933.551 521.263 938.666 521.263Z" fill="#7CDF64"/>
<path d="M1024 521.263C1029.12 521.263 1033.26 517.116 1033.26 512C1033.26 506.884 1029.12 502.737 1024 502.737C1018.88 502.737 1014.74 506.884 1014.74 512C1014.74 517.116 1018.88 521.263 1024 521.263Z" fill="#7CDF64"/>
<path d="M-2.57492e-05 606.596C5.11588 606.596 9.26313 602.449 9.26313 597.333C9.26313 592.217 5.11588 588.07 -2.57492e-05 588.07C-5.11593 588.07 -9.26318 592.217 -9.26318 597.333C-9.26318 602.449 -5.11593 606.596 -2.57492e-05 606.596Z" fill="#7CDF64"/>
<path d="M85.3332 606.596C90.4491 606.596 94.5964 602.449 94.5964 597.333C94.5964 592.217 90.4491 588.07 85.3332 588.07C80.2173 588.07 76.0701 592.217 76.0701 597.333C76.0701 602.449 80.2173 606.596 85.3332 606.596Z" fill="#7CDF64"/>
<path d="M170.667 606.596C175.783 606.596 179.93 602.449 179.93 597.333C179.93 592.217 175.783 588.07 170.667 588.07C165.551 588.07 161.404 592.217 161.404 597.333C161.404 602.449 165.551 606.596 170.667 606.596Z" stroke="#7CDF64" stroke-width="3.5"/>
<path d="M256 606.596C261.116 606.596 265.263 602.449 265.263 597.333C265.263 592.217 261.116 588.07 256 588.07C250.884 588.07 246.737 592.217 246.737 597.333C246.737 602.449 250.884 606.596 256 606.596Z" stroke="#7CDF64" stroke-width="3.5"/>
<path d="M341.333 606.596C346.449 606.596 350.596 602.449 350.596 597.333C350.596 592.217 346.449 588.07 341.333 588.07C336.217 588.07 332.07 592.217 332.07 597.333C332.07 602.449 336.217 606.596 341.333 606.596Z" fill="#7CDF64"/>
<path d="M426.667 606.596C431.783 606.596 435.93 602.449 435.93 597.333C435.93 592.217 431.783 588.07 426.667 588.07C421.551 588.07 417.404 592.217 417.404 597.333C417.404 602.449 421.551 606.596 426.667 606.596Z" fill="#7CDF64"/>
<path d="M512 606.596C517.116 606.596 521.263 602.449 521.263 597.333C521.263 592.217 517.116 588.07 512 588.07C506.884 588.07 502.737 592.217 502.737 597.333C502.737 602.449 506.884 606.596 512 606.596Z" fill="#7CDF64"/>
<path d="M597.333 606.596C602.449 606.596 606.596 602.449 606.596 597.333C606.596 592.217 602.449 588.07 597.333 588.07C592.217 588.07 588.07 592.217 588.07 597.333C588.07 602.449 592.217 606.596 597.333 606.596Z" fill="#7CDF64"/>
<path d="M682.666 606.596C687.782 606.596 691.93 602.449 691.93 597.333C691.93 592.217 687.782 588.07 682.666 588.07C677.551 588.07 673.403 592.217 673.403 597.333C673.403 602.449 677.551 606.596 682.666 606.596Z" fill="#7CDF64"/>
<path d="M768 606.596C773.116 606.596 777.263 602.449 777.263 597.333C777.263 592.217 773.116 588.07 768 588.07C762.884 588.07 758.737 592.217 758.737 597.333C758.737 602.449 762.884 606.596 768 606.596Z" fill="#7CDF64"/>
<path d="M853.333 606.596C858.449 606.596 862.596 602.449 862.596 597.333C862.596 592.217 858.449 588.07 853.333 588.07C848.217 588.07 844.07 592.217 844.07 597.333C844.07 602.449 848.217 606.596 853.333 606.596Z" fill="#7CDF64"/>
<path d="M938.666 606.596C943.782 606.596 947.93 602.449 947.93 597.333C947.93 592.217 943.782 588.07 938.666 588.07C933.551 588.07 929.403 592.217 929.403 597.333C929.403 602.449 933.551 606.596 938.666 606.596Z" fill="#7CDF64"/>
<path d="M1024 606.596C1029.12 606.596 1033.26 602.449 1033.26 597.333C1033.26 592.217 1029.12 588.07 1024 588.07C1018.88 588.07 1014.74 592.217 1014.74 597.333C1014.74 602.449 1018.88 606.596 1024 606.596Z" fill="#7CDF64"/>
<path d="M-2.57492e-05 691.93C5.11588 691.93 9.26313 687.782 9.26313 682.667C9.26313 677.551 5.11588 673.403 -2.57492e-05 673.403C-5.11593 673.403 -9.26318 677.551 -9.26318 682.667C-9.26318 687.782 -5.11593 691.93 -2.57492e-05 691.93Z" fill="#7CDF64"/>
<path d="M85.3332 691.93C90.4491 691.93 94.5964 687.782 94.5964 682.667C94.5964 677.551 90.4491 673.403 85.3332 673.403C80.2173 673.403 76.0701 677.551 76.0701 682.667C76.0701 687.782 80.2173 691.93 85.3332 691.93Z" fill="#7CDF64"/>
<path d="M170.667 691.93C175.783 691.93 179.93 687.782 179.93 682.667C179.93 677.551 175.783 673.403 170.667 673.403C165.551 673.403 161.404 677.551 161.404 682.667C161.404 687.782 165.551 691.93 170.667 691.93Z" fill="#7CDF64"/>
<path d="M256 691.93C261.116 691.93 265.263 687.782 265.263 682.667C265.263 677.551 261.116 673.403 256 673.403C250.884 673.403 246.737 677.551 246.737 682.667C246.737 687.782 250.884 691.93 256 691.93Z" stroke="#7CDF64" stroke-width="3.5"/>
<path d="M341.333 691.93C346.449 691.93 350.596 687.782 350.596 682.667C350.596 677.551 346.449 673.403 341.333 673.403C336.217 673.403 332.07 677.551 332.07 682.667C332.07 687.782 336.217 691.93 341.333 691.93Z" stroke="#7CDF64" stroke-width="3.5"/>
<path d="M426.667 691.93C431.783 691.93 435.93 687.782 435.93 682.667C435.93 677.551 431.783 673.403 426.667 673.403C421.551 673.403 417.404 677.551 417.404 682.667C417.404 687.782 421.551 691.93 426.667 691.93Z" fill="#7CDF64"/>
<path d="M512 691.93C517.116 691.93 521.263 687.782 521.263 682.667C521.263 677.551 517.116 673.403 512 673.403C506.884 673.403 502.737 677.551 502.737 682.667C502.737 687.782 506.884 691.93 512 691.93Z" stroke="#7CDF64" stroke-width="3.5"/>
<path d="M597.333 691.93C602.449 691.93 606.596 687.782 606.596 682.667C606.596 677.551 602.449 673.403 597.333 673.403C592.217 673.403 588.07 677.551 588.07 682.667C588.07 687.782 592.217 691.93 597.333 691.93Z" fill="#7CDF64"/>
<path d="M682.666 691.93C687.782 691.93 691.93 687.782 691.93 682.667C691.93 677.551 687.782 673.403 682.666 673.403C677.551 673.403 673.403 677.551 673.403 682.667C673.403 687.782 677.551 691.93 682.666 691.93Z" fill="#7CDF64"/>
<path d="M768 691.93C773.116 691.93 777.263 687.782 777.263 682.667C777.263 677.551 773.116 673.403 768 673.403C762.884 673.403 758.737 677.551 758.737 682.667C758.737 687.782 762.884 691.93 768 691.93Z" fill="#7CDF64"/>
<path d="M853.333 691.93C858.449 691.93 862.596 687.782 862.596 682.667C862.596 677.551 858.449 673.403 853.333 673.403C848.217 673.403 844.07 677.551 844.07 682.667C844.07 687.782 848.217 691.93 853.333 691.93Z" fill="#7CDF64"/>
<path d="M938.666 691.93C943.782 691.93 947.93 687.782 947.93 682.667C947.93 677.551 943.782 673.403 938.666 673.403C933.551 673.403 929.403 677.551 929.403 682.667C929.403 687.782 933.551 691.93 938.666 691.93Z" fill="#7CDF64"/>
<path d="M1024 691.93C1029.12 691.93 1033.26 687.782 1033.26 682.667C1033.26 677.551 1029.12 673.403 1024 673.403C1018.88 673.403 1014.74 677.551 1014.74 682.667C1014.74 687.782 1018.88 691.93 1024 691.93Z" fill="#7CDF64"/>
<path d="M-2.57492e-05 777.263C5.11588 777.263 9.26313 773.116 9.26313 768C9.26313 762.884 5.11588 758.737 -2.57492e-05 758.737C-5.11593 758.737 -9.26318 762.884 -9.26318 768C-9.26318 773.116 -5.11593 777.263 -2.57492e-05 777.263Z" fill="#7CDF64"/>
<path d="M85.3332 777.263C90.4491 777.263 94.5964 773.116 94.5964 768C94.5964 762.884 90.4491 758.737 85.3332 758.737C80.2173 758.737 76.0701 762.884 76.0701 768C76.0701 773.116 80.2173 777.263 85.3332 777.263Z" fill="#7CDF64"/>
<path d="M170.667 777.263C175.783 777.263 179.93 773.116 179.93 768C179.93 762.884 175.783 758.737 170.667 758.737C165.551 758.737 161.404 762.884 161.404 768C161.404 773.116 165.551 777.263 170.667 777.263Z" stroke="#7CDF64" stroke-width="3.5"/>
<path d="M256 777.263C261.116 777.263 265.263 773.116 265.263 768C265.263 762.884 261.116 758.737 256 758.737C250.884 758.737 246.737 762.884 246.737 768C246.737 773.116 250.884 777.263 256 777.263Z" fill="#7CDF64"/>
<path d="M341.333 777.263C346.449 777.263 350.596 773.116 350.596 768C350.596 762.884 346.449 758.737 341.333 758.737C336.217 758.737 332.07 762.884 332.07 768C332.07 773.116 336.217 777.263 341.333 777.263Z" fill="#7CDF64"/>
<path d="M426.667 777.263C431.783 777.263 435.93 773.116 435.93 768C435.93 762.884 431.783 758.737 426.667 758.737C421.551 758.737 417.404 762.884 417.404 768C417.404 773.116 421.551 777.263 426.667 777.263Z" fill="#7CDF64"/>
<path d="M512 777.263C517.116 777.263 521.263 773.116 521.263 768C521.263 762.884 517.116 758.737 512 758.737C506.884 758.737 502.737 762.884 502.737 768C502.737 773.116 506.884 777.263 512 777.263Z" stroke="#7CDF64" stroke-width="3.5"/>
<path d="M597.333 777.263C602.449 777.263 606.596 773.116 606.596 768C606.596 762.884 602.449 758.737 597.333 758.737C592.217 758.737 588.07 762.884 588.07 768C588.07 773.116 592.217 777.263 597.333 777.263Z" stroke="#7CDF64" stroke-width="3.5"/>
<path d="M682.666 777.263C687.782 777.263 691.93 773.116 691.93 768C691.93 762.884 687.782 758.737 682.666 758.737C677.551 758.737 673.403 762.884 673.403 768C673.403 773.116 677.551 777.263 682.666 777.263Z" fill="#7CDF64"/>
<path d="M768 777.263C773.116 777.263 777.263 773.116 777.263 768C777.263 762.884 773.116 758.737 768 758.737C762.884 758.737 758.737 762.884 758.737 768C758.737 773.116 762.884 777.263 768 777.263Z" fill="#7CDF64"/>
<path d="M853.333 777.263C858.449 777.263 862.596 773.116 862.596 768C862.596 762.884 858.449 758.737 853.333 758.737C848.217 758.737 844.07 762.884 844.07 768C844.07 773.116 848.217 777.263 853.333 777.263Z" fill="#7CDF64"/>
<path d="M938.666 777.263C943.782 777.263 947.93 773.116 947.93 768C947.93 762.884 943.782 758.737 938.666 758.737C933.551 758.737 929.403 762.884 929.403 768C929.403 773.116 933.551 777.263 938.666 777.263Z" stroke="#7CDF64" stroke-width="3.5"/>
<path d="M1024 777.263C1029.12 777.263 1033.26 773.116 1033.26 768C1033.26 762.884 1029.12 758.737 1024 758.737C1018.88 758.737 1014.74 762.884 1014.74 768C1014.74 773.116 1018.88 777.263 1024 777.263Z" fill="#7CDF64"/>
<path d="M-2.57492e-05 862.596C5.11588 862.596 9.26313 858.449 9.26313 853.333C9.26313 848.217 5.11588 844.07 -2.57492e-05 844.07C-5.11593 844.07 -9.26318 848.217 -9.26318 853.333C-9.26318 858.449 -5.11593 862.596 -2.57492e-05 862.596Z" fill="#7CDF64"/>
<path d="M85.3332 862.596C90.4491 862.596 94.5964 858.449 94.5964 853.333C94.5964 848.217 90.4491 844.07 85.3332 844.07C80.2173 844.07 76.0701 848.217 76.0701 853.333C76.0701 858.449 80.2173 862.596 85.3332 862.596Z" fill="#7CDF64"/>
<path d="M170.667 862.596C175.783 862.596 179.93 858.449 179.93 853.333C179.93 848.217 175.783 844.07 170.667 844.07C165.551 844.07 161.404 848.217 161.404 853.333C161.404 858.449 165.551 862.596 170.667 862.596Z" fill="#7CDF64"/>
<path d="M256 862.596C261.116 862.596 265.263 858.449 265.263 853.333C265.263 848.217 261.116 844.07 256 844.07C250.884 844.07 246.737 848.217 246.737 853.333C246.737 858.449 250.884 862.596 256 862.596Z" fill="#7CDF64"/>
<path d="M341.333 862.596C346.449 862.596 350.596 858.449 350.596 853.333C350.596 848.217 346.449 844.07 341.333 844.07C336.217 844.07 332.07 848.217 332.07 853.333C332.07 858.449 336.217 862.596 341.333 862.596Z" fill="#7CDF64"/>
<path d="M426.667 862.596C431.783 862.596 435.93 858.449 435.93 853.333C435.93 848.217 431.783 844.07 426.667 844.07C421.551 844.07 417.404 848.217 417.404 853.333C417.404 858.449 421.551 862.596 426.667 862.596Z" fill="#7CDF64"/>
<path d="M512 862.596C517.116 862.596 521.263 858.449 521.263 853.333C521.263 848.217 517.116 844.07 512 844.07C506.884 844.07 502.737 848.217 502.737 853.333C502.737 858.449 506.884 862.596 512 862.596Z" fill="#7CDF64"/>
<path d="M597.333 862.596C602.449 862.596 606.596 858.449 606.596 853.333C606.596 848.217 602.449 844.07 597.333 844.07C592.217 844.07 588.07 848.217 588.07 853.333C588.07 858.449 592.217 862.596 597.333 862.596Z" fill="#7CDF64"/>
<path d="M682.666 862.596C687.782 862.596 691.93 858.449 691.93 853.333C691.93 848.217 687.782 844.07 682.666 844.07C677.551 844.07 673.403 848.217 673.403 853.333C673.403 858.449 677.551 862.596 682.666 862.596Z" fill="#7CDF64"/>
<path d="M768 862.596C773.116 862.596 777.263 858.449 777.263 853.333C777.263 848.217 773.116 844.07 768 844.07C762.884 844.07 758.737 848.217 758.737 853.333C758.737 858.449 762.884 862.596 768 862.596Z" fill="#7CDF64"/>
<path d="M853.333 862.596C858.449 862.596 862.596 858.449 862.596 853.333C862.596 848.217 858.449 844.07 853.333 844.07C848.217 844.07 844.07 848.217 844.07 853.333C844.07 858.449 848.217 862.596 853.333 862.596Z" fill="#7CDF64"/>
<path d="M938.666 862.596C943.782 862.596 947.93 858.449 947.93 853.333C947.93 848.217 943.782 844.07 938.666 844.07C933.551 844.07 929.403 848.217 929.403 853.333C929.403 858.449 933.551 862.596 938.666 862.596Z" fill="#7CDF64"/>
<path d="M1024 862.596C1029.12 862.596 1033.26 858.449 1033.26 853.333C1033.26 848.217 1029.12 844.07 1024 844.07C1018.88 844.07 1014.74 848.217 1014.74 853.333C1014.74 858.449 1018.88 862.596 1024 862.596Z" fill="#7CDF64"/>
<path d="M-2.57492e-05 947.93C5.11588 947.93 9.26313 943.782 9.26313 938.667C9.26313 933.551 5.11588 929.403 -2.57492e-05 929.403C-5.11593 929.403 -9.26318 933.551 -9.26318 938.667C-9.26318 943.782 -5.11593 947.93 -2.57492e-05 947.93Z" fill="#7CDF64"/>
<path d="M85.3332 947.93C90.4491 947.93 94.5964 943.782 94.5964 938.667C94.5964 933.551 90.4491 929.403 85.3332 929.403C80.2173 929.403 76.0701 933.551 76.0701 938.667C76.0701 943.782 80.2173 947.93 85.3332 947.93Z" fill="#7CDF64"/>
<path d="M170.667 947.93C175.783 947.93 179.93 943.782 179.93 938.667C179.93 933.551 175.783 929.403 170.667 929.403C165.551 929.403 161.404 933.551 161.404 938.667C161.404 943.782 165.551 947.93 170.667 947.93Z" stroke="#7CDF64" stroke-width="3.5"/>
<path d="M256 947.93C261.116 947.93 265.263 943.782 265.263 938.667C265.263 933.551 261.116 929.403 256 929.403C250.884 929.403 246.737 933.551 246.737 938.667C246.737 943.782 250.884 947.93 256 947.93Z" stroke="#7CDF64" stroke-width="3.5"/>
<path d="M341.333 947.93C346.449 947.93 350.596 943.782 350.596 938.667C350.596 933.551 346.449 929.403 341.333 929.403C336.217 929.403 332.07 933.551 332.07 938.667C332.07 943.782 336.217 947.93 341.333 947.93Z" fill="#7CDF64"/>
<path d="M426.667 947.93C431.783 947.93 435.93 943.782 435.93 938.667C435.93 933.551 431.783 929.403 426.667 929.403C421.551 929.403 417.404 933.551 417.404 938.667C417.404 943.782 421.551 947.93 426.667 947.93Z" stroke="#7CDF64" stroke-width="3.5"/>
<path d="M512 947.93C517.116 947.93 521.263 943.782 521.263 938.667C521.263 933.551 517.116 929.403 512 929.403C506.884 929.403 502.737 933.551 502.737 938.667C502.737 943.782 506.884 947.93 512 947.93Z" stroke="#7CDF64" stroke-width="3.5"/>
<path d="M597.333 947.93C602.449 947.93 606.596 943.782 606.596 938.667C606.596 933.551 602.449 929.403 597.333 929.403C592.217 929.403 588.07 933.551 588.07 938.667C588.07 943.782 592.217 947.93 597.333 947.93Z" fill="#7CDF64"/>
<path d="M682.666 947.93C687.782 947.93 691.93 943.782 691.93 938.667C691.93 933.551 687.782 929.403 682.666 929.403C677.551 929.403 673.403 933.551 673.403 938.667C673.403 943.782 677.551 947.93 682.666 947.93Z" fill="#7CDF64"/>
<path d="M768 947.93C773.116 947.93 777.263 943.782 777.263 938.667C777.263 933.551 773.116 929.403 768 929.403C762.884 929.403 758.737 933.551 758.737 938.667C758.737 943.782 762.884 947.93 768 947.93Z" fill="#7CDF64"/>
<path d="M853.333 947.93C858.449 947.93 862.596 943.782 862.596 938.667C862.596 933.551 858.449 929.403 853.333 929.403C848.217 929.403 844.07 933.551 844.07 938.667C844.07 943.782 848.217 947.93 853.333 947.93Z" stroke="#7CDF64" stroke-width="3.5"/>
<path d="M938.666 947.93C943.782 947.93 947.93 943.782 947.93 938.667C947.93 933.551 943.782 929.403 938.666 929.403C933.551 929.403 929.403 933.551 929.403 938.667C929.403 943.782 933.551 947.93 938.666 947.93Z" fill="#7CDF64"/>
<path d="M1024 947.93C1029.12 947.93 1033.26 943.782 1033.26 938.667C1033.26 933.551 1029.12 929.403 1024 929.403C1018.88 929.403 1014.74 933.551 1014.74 938.667C1014.74 943.782 1018.88 947.93 1024 947.93Z" fill="#7CDF64"/>
<path d="M-2.57492e-05 1033.26C5.11588 1033.26 9.26313 1029.12 9.26313 1024C9.26313 1018.88 5.11588 1014.74 -2.57492e-05 1014.74C-5.11593 1014.74 -9.26318 1018.88 -9.26318 1024C-9.26318 1029.12 -5.11593 1033.26 -2.57492e-05 1033.26Z" fill="#7CDF64"/>
<path d="M85.3332 1033.26C90.4491 1033.26 94.5964 1029.12 94.5964 1024C94.5964 1018.88 90.4491 1014.74 85.3332 1014.74C80.2173 1014.74 76.0701 1018.88 76.0701 1024C76.0701 1029.12 80.2173 1033.26 85.3332 1033.26Z" fill="#7CDF64"/>
<path d="M170.667 1033.26C175.783 1033.26 179.93 1029.12 179.93 1024C179.93 1018.88 175.783 1014.74 170.667 1014.74C165.551 1014.74 161.404 1018.88 161.404 1024C161.404 1029.12 165.551 1033.26 170.667 1033.26Z" fill="#7CDF64"/>
<path d="M256 1033.26C261.116 1033.26 265.263 1029.12 265.263 1024C265.263 1018.88 261.116 1014.74 256 1014.74C250.884 1014.74 246.737 1018.88 246.737 1024C246.737 1029.12 250.884 1033.26 256 1033.26Z" fill="#7CDF64"/>
<path d="M341.333 1033.26C346.449 1033.26 350.596 1029.12 350.596 1024C350.596 1018.88 346.449 1014.74 341.333 1014.74C336.217 1014.74 332.07 1018.88 332.07 1024C332.07 1029.12 336.217 1033.26 341.333 1033.26Z" fill="#7CDF64"/>
<path d="M426.667 1033.26C431.783 1033.26 435.93 1029.12 435.93 1024C435.93 1018.88 431.783 1014.74 426.667 1014.74C421.551 1014.74 417.404 1018.88 417.404 1024C417.404 1029.12 421.551 1033.26 426.667 1033.26Z" fill="#7CDF64"/>
<path d="M512 1033.26C517.116 1033.26 521.263 1029.12 521.263 1024C521.263 1018.88 517.116 1014.74 512 1014.74C506.884 1014.74 502.737 1018.88 502.737 1024C502.737 1029.12 506.884 1033.26 512 1033.26Z" fill="#7CDF64"/>
<path d="M597.333 1033.26C602.449 1033.26 606.596 1029.12 606.596 1024C606.596 1018.88 602.449 1014.74 597.333 1014.74C592.217 1014.74 588.07 1018.88 588.07 1024C588.07 1029.12 592.217 1033.26 597.333 1033.26Z" fill="#7CDF64"/>
<path d="M682.666 1033.26C687.782 1033.26 691.93 1029.12 691.93 1024C691.93 1018.88 687.782 1014.74 682.666 1014.74C677.551 1014.74 673.403 1018.88 673.403 1024C673.403 1029.12 677.551 1033.26 682.666 1033.26Z" fill="#7CDF64"/>
<path d="M768 1033.26C773.116 1033.26 777.263 1029.12 777.263 1024C777.263 1018.88 773.116 1014.74 768 1014.74C762.884 1014.74 758.737 1018.88 758.737 1024C758.737 1029.12 762.884 1033.26 768 1033.26Z" fill="#7CDF64"/>
<path d="M853.333 1033.26C858.449 1033.26 862.596 1029.12 862.596 1024C862.596 1018.88 858.449 1014.74 853.333 1014.74C848.217 1014.74 844.07 1018.88 844.07 1024C844.07 1029.12 848.217 1033.26 853.333 1033.26Z" fill="#7CDF64"/>
<path d="M938.666 1033.26C943.782 1033.26 947.93 1029.12 947.93 1024C947.93 1018.88 943.782 1014.74 938.666 1014.74C933.551 1014.74 929.403 1018.88 929.403 1024C929.403 1029.12 933.551 1033.26 938.666 1033.26Z" fill="#7CDF64"/>
<path d="M1024 1033.26C1029.12 1033.26 1033.26 1029.12 1033.26 1024C1033.26 1018.88 1029.12 1014.74 1024 1014.74C1018.88 1014.74 1014.74 1018.88 1014.74 1024C1014.74 1029.12 1018.88 1033.26 1024 1033.26Z" fill="#7CDF64"/>
</g>
<defs>
<clipPath id="clip0_17_1067">
<rect width="1024" height="1024" fill="white"/>
</clipPath>
</defs>
</svg>
