<svg width="60" height="60" viewBox="0 0 60 60" fill="none" xmlns="http://www.w3.org/2000/svg">
    <g clip-path="url(#clip0_344_192)">
        <path
            d="M53.9062 22.4574L52.2018 40.7812H54.0846L55.7771 22.5867C55.7799 22.5579 55.7812 22.5291 55.7812 22.5C55.7812 17.2955 52.5481 14.0625 47.3438 14.0625H41.2397C41.2163 14.6934 41.1362 15.321 41.0001 15.9375H47.3438C51.5002 15.9375 53.8898 18.3133 53.9062 22.4574ZM5.9063 40.7812H7.79028L6.10108 23.4757C6.09604 23.3437 6.09353 22.4936 6.09421 22.4203C6.13678 18.3005 8.5286 15.9375 12.6562 15.9375H18.9999C18.8638 15.321 18.7836 14.6934 18.7603 14.0625H12.6562C7.50549 14.0625 4.27254 17.2577 4.21922 22.3997C4.21922 22.4096 4.21853 23.4785 4.23181 23.6169L5.9063 40.7812ZM57.1875 42.6562H2.8125C2.06683 42.6571 1.35193 42.9536 0.824661 43.4809C0.297391 44.0082 0.000813933 44.7231 0 45.4688L0 49.2188C1.24309e-05 49.4674 0.0987885 49.7058 0.274601 49.8816C0.450414 50.0575 0.688863 50.1562 0.9375 50.1562H6.09375V59.0625C6.09375 59.3111 6.19252 59.5496 6.36834 59.7254C6.54415 59.9012 6.78261 60 7.03125 60C7.27989 60 7.51835 59.9012 7.69416 59.7254C7.86998 59.5496 7.96875 59.3111 7.96875 59.0625V50.1562H52.0312V59.0625C52.0312 59.3111 52.13 59.5496 52.3058 59.7254C52.4817 59.9012 52.7201 60 52.9688 60C53.2174 60 53.4558 59.9012 53.6317 59.7254C53.8075 59.5496 53.9062 59.3111 53.9062 59.0625V50.1562H59.0625C59.3111 50.1562 59.5496 50.0575 59.7254 49.8816C59.9012 49.7058 60 49.4674 60 49.2188V45.4688C59.9992 44.7231 59.7026 44.0082 59.1753 43.4809C58.6481 42.9536 57.9332 42.6571 57.1875 42.6562ZM58.125 48.2812H1.875V45.4688C1.87525 45.2202 1.9741 44.9819 2.14986 44.8061C2.32562 44.6304 2.56394 44.5315 2.8125 44.5312H57.1875C57.4361 44.5315 57.6743 44.6304 57.8501 44.8062C58.0259 44.9819 58.1247 45.2202 58.125 45.4688V48.2812Z"
            fill="#272937" />
        <path
            d="M22.1081 23.4375H20.0656C14.4292 23.4375 9.84375 28.3246 9.84375 34.3318V40.7812H11.7188V34.3318C11.7188 29.3584 15.463 25.3125 20.0656 25.3125H23.6891L27.8779 29.2124L25.8309 36.4039C25.8217 36.4363 25.8143 36.4692 25.8087 36.5025C25.7557 36.825 25.7841 37.1556 25.8913 37.4643C25.9986 37.773 26.1813 38.05 26.4228 38.2702L28.4999 40.1967C28.9089 40.5702 29.4413 40.7796 29.9952 40.785C30.549 40.7904 31.0853 40.5912 31.5015 40.2257L33.5449 38.4068C33.7946 38.1894 33.9851 37.9123 34.0987 37.6014C34.2123 37.2904 34.2452 36.9557 34.1945 36.6286C34.1894 36.597 34.1827 36.5657 34.1744 36.5348L32.1924 29.1471L36.3112 25.3125H39.9344C44.5367 25.3125 48.2812 29.3584 48.2812 34.3318V40.7812H50.1562V34.3318C50.1562 28.3246 45.5708 23.4375 39.9344 23.4375H37.8921C37.4316 22.9422 37.1025 22.3395 36.9347 21.6843C36.767 21.0292 36.7659 20.3425 36.9316 19.6868C38.4945 18.0707 39.3703 15.9118 39.375 13.6635V8.83641C39.3454 6.46713 38.3774 4.2063 36.6832 2.54977C34.989 0.893251 32.7069 -0.0237213 30.3376 -2.49161e-05H29.6624C27.2931 -0.0236829 25.0111 0.893302 23.3169 2.54982C21.6227 4.20633 20.6546 6.46714 20.625 8.83641V13.6635C20.6297 15.9181 21.5103 18.0826 23.0809 19.7001C23.2436 20.3548 23.2399 21.0398 23.0699 21.6926C22.9 22.3454 22.5693 22.9453 22.1081 23.4375ZM32.2984 37.006L30.2545 38.8254C30.1858 38.8785 30.1012 38.907 30.0143 38.9064C29.9275 38.9058 29.8433 38.8762 29.7753 38.8222L27.6986 36.896C27.68 36.8797 27.6659 36.8589 27.6576 36.8355L29.5563 30.1655C29.8759 30.2202 30.2029 30.2159 30.521 30.1528L32.3424 36.9429C32.334 36.9677 32.3188 36.9896 32.2984 37.006ZM30.5635 28.1016C30.4111 28.2456 30.2094 28.3257 29.9997 28.3257C29.7901 28.3257 29.5884 28.2454 29.436 28.1014C29.436 28.1014 26.6669 25.5573 24.3632 23.4916C24.7422 22.7959 24.9704 22.0282 25.0328 21.2384C26.4358 22.0645 28.0343 22.5001 29.6624 22.5H30.3376C31.9657 22.5001 33.5642 22.0646 34.9672 21.2385C35.0296 22.0282 35.2578 22.7959 35.6369 23.4916C34.8662 24.1633 30.5635 28.1016 30.5635 28.1016ZM22.5 8.83641C22.5291 6.96428 23.2995 5.18009 24.6422 3.8751C25.9848 2.57011 27.7902 1.85083 29.6624 1.87498H30.3376C32.2098 1.85083 34.0152 2.57011 35.3578 3.87511C36.7005 5.1801 37.4709 6.96428 37.5 8.83641V13.6635C37.4709 15.5357 36.7005 17.3199 35.3578 18.6248C34.0152 19.9298 32.2098 20.6491 30.3376 20.625H29.6624C27.7902 20.6491 25.9848 19.9298 24.6422 18.6248C23.2995 17.3199 22.5291 15.5357 22.5 13.6635V8.83641Z"
            fill="#272937" />
    </g>
    <defs>
        <clipPath id="clip0_344_192">
            <rect width="60" height="60" fill="white" />
        </clipPath>
    </defs>
</svg>
    