<svg width="360" height="800" viewBox="0 0 360 800" fill="none" xmlns="http://www.w3.org/2000/svg">
<path d="M429.75 100H305V0L429.75 100Z" stroke="#7CDF64" stroke-width="3.5" stroke-linejoin="round"/>
<path d="M429.75 200V100L305 200H429.75Z" stroke="#7CDF64" stroke-width="3.5" stroke-linejoin="round"/>
<path d="M305 300L429.75 200H305V300Z" stroke="#7CDF64" stroke-width="3.5" stroke-linejoin="round"/>
<path d="M367.375 350V300H305L367.375 350Z" stroke="#7CDF64" stroke-width="3.5" stroke-linejoin="round"/>
<path d="M367.375 350L305 400H367.375V350Z" stroke="#7CDF64" stroke-width="3.5" stroke-linejoin="round"/>
<path d="M180.25 100H305V0L180.25 100Z" stroke="#7CDF64" stroke-width="3.5" stroke-linejoin="round"/>
<path d="M180.25 100V0L55.5 100H180.25Z" stroke="#7CDF64" stroke-width="3.5" stroke-linejoin="round"/>
<path d="M180.25 100V200H55.5L180.25 100Z" stroke="#7CDF64" stroke-width="3.5" stroke-linejoin="round"/>
<path d="M305 100L180.25 200V100H305Z" stroke="#7CDF64" stroke-width="3.5" stroke-linejoin="round"/>
<path d="M-194 200H55.5L-194 0V200Z" stroke="#7CDF64" stroke-width="3.5" stroke-linejoin="round"/>
<path d="M-6.875 250L55.5 200H-6.875V250Z" stroke="#7CDF64" stroke-width="3.5" stroke-linejoin="round"/>
<path d="M-6.875 250V300H55.5L-6.875 250Z" stroke="#7CDF64" stroke-width="3.5" stroke-linejoin="round"/>
<path d="M55.5 350L-6.875 300H55.5V350Z" stroke="#7CDF64" stroke-width="3.5" stroke-linejoin="round"/>
<path d="M55.5 350H-6.875V400L55.5 350Z" stroke="#7CDF64" stroke-width="3.5" stroke-linejoin="round"/>
<path d="M305 200H180.25L305 300V200Z" stroke="#7CDF64" stroke-width="3.5" stroke-linejoin="round"/>
<path d="M180.25 300H55.5V200L180.25 300Z" stroke="#7CDF64" stroke-width="3.5" stroke-linejoin="round"/>
<path d="M180.25 300V350H117.875L180.25 300Z" stroke="#7CDF64" stroke-width="3.5" stroke-linejoin="round"/>
<path d="M117.875 350V300H55.5L117.875 350Z" stroke="#7CDF64" stroke-width="3.5" stroke-linejoin="round"/>
<path d="M117.875 400V350L55.5 400H117.875Z" stroke="#7CDF64" stroke-width="3.5" stroke-linejoin="round"/>
<path d="M117.875 400H180.25L117.875 350V400Z" stroke="#7CDF64" stroke-width="3.5" stroke-linejoin="round"/>
<path d="M305 300L242.625 350V300H305Z" stroke="#7CDF64" stroke-width="3.5" stroke-linejoin="round"/>
<path d="M180.25 350L242.625 300V350H180.25Z" stroke="#7CDF64" stroke-width="3.5" stroke-linejoin="round"/>
<path d="M180.25 400H242.625L180.25 350V400Z" stroke="#7CDF64" stroke-width="3.5" stroke-linejoin="round"/>
<path d="M305 400L242.625 350H305V400Z" stroke="#7CDF64" stroke-width="3.5" stroke-linejoin="round"/>
<path d="M305 400V450H242.625L305 400Z" stroke="#7CDF64" stroke-width="3.5" stroke-linejoin="round"/>
<path d="M242.625 450V400L180.25 450H242.625Z" stroke="#7CDF64" stroke-width="3.5" stroke-linejoin="round"/>
<path d="M180.25 450L242.625 500V450H180.25Z" stroke="#7CDF64" stroke-width="3.5" stroke-linejoin="round"/>
<path d="M305 500V450H242.625L305 500Z" stroke="#7CDF64" stroke-width="3.5" stroke-linejoin="round"/>
<path d="M117.875 450V400H180.25L117.875 450Z" stroke="#7CDF64" stroke-width="3.5" stroke-linejoin="round"/>
<path d="M117.875 400V450H55.5L117.875 400Z" stroke="#7CDF64" stroke-width="3.5" stroke-linejoin="round"/>
<path d="M117.875 450L55.5 500V450H117.875Z" stroke="#7CDF64" stroke-width="3.5" stroke-linejoin="round"/>
<path d="M180.25 450V500L117.875 450H180.25Z" stroke="#7CDF64" stroke-width="3.5" stroke-linejoin="round"/>
<path d="M180.25 600V500L55.5 600H180.25Z" stroke="#7CDF64" stroke-width="3.5" stroke-linejoin="round"/>
<path d="M180.25 500V600L305 500H180.25Z" stroke="#7CDF64" stroke-width="3.5" stroke-linejoin="round"/>
<path d="M55.5 400H-69.25L55.5 500V400Z" stroke="#7CDF64" stroke-width="3.5" stroke-linejoin="round"/>
<path d="M-69.25 600V500L55.5 600H-69.25Z" stroke="#7CDF64" stroke-width="3.5" stroke-linejoin="round"/>
<path d="M55.5 600L-69.25 700H55.5V600Z" stroke="#7CDF64" stroke-width="3.5" stroke-linejoin="round"/>
<path d="M-69.25 800L55.5 700H-69.25V800Z" stroke="#7CDF64" stroke-width="3.5" stroke-linejoin="round"/>
<path d="M305 700L180.25 600H305V700Z" stroke="#7CDF64" stroke-width="3.5" stroke-linejoin="round"/>
<path d="M180.25 600V650H117.875L180.25 600Z" stroke="#7CDF64" stroke-width="3.5" stroke-linejoin="round"/>
<path d="M117.875 600L55.5 650H117.875V600Z" stroke="#7CDF64" stroke-width="3.5" stroke-linejoin="round"/>
<path d="M117.875 700H55.5L117.875 650V700Z" stroke="#7CDF64" stroke-width="3.5" stroke-linejoin="round"/>
<path d="M117.875 650L180.25 700H117.875V650Z" stroke="#7CDF64" stroke-width="3.5" stroke-linejoin="round"/>
<path d="M55.5 800V700H180.25L55.5 800Z" stroke="#7CDF64" stroke-width="3.5" stroke-linejoin="round"/>
<path d="M305 700L180.25 800H305V700Z" stroke="#7CDF64" stroke-width="3.5" stroke-linejoin="round"/>
<path d="M367.375 400L305 450V400H367.375Z" stroke="#7CDF64" stroke-width="3.5" stroke-linejoin="round"/>
<path d="M367.375 500V450L305 500H367.375Z" stroke="#7CDF64" stroke-width="3.5" stroke-linejoin="round"/>
<path d="M305 600L429.75 500H305V600Z" stroke="#7CDF64" stroke-width="3.5" stroke-linejoin="round"/>
<path d="M305 700V600L429.75 700H305Z" stroke="#7CDF64" stroke-width="3.5" stroke-linejoin="round"/>
<path d="M429.75 800L305 700H429.75V800Z" stroke="#7CDF64" stroke-width="3.5" stroke-linejoin="round"/>
</svg>
