<svg width="60" height="60" viewBox="0 0 60 60" fill="none" xmlns="http://www.w3.org/2000/svg">
    <path
        d="M54.0373 41.3939C50.9432 38.273 46.8209 36.5543 42.4296 36.5543H40.1815C40.0107 36.5543 39.8423 36.5944 39.6898 36.6714C39.5374 36.7483 39.4051 36.86 39.3037 36.9974C37.3941 39.5844 34.3377 41.1289 31.1276 41.1289H28.7871C25.577 41.1289 22.5205 39.5844 20.6108 36.9973C20.5094 36.8599 20.3771 36.7483 20.2247 36.6713C20.0723 36.5944 19.9039 36.5543 19.7331 36.5543H17.6492C13.251 36.5543 9.10147 38.2709 5.965 41.3882C2.82242 44.5114 1.0918 48.6503 1.0918 53.0427V57.9097C1.0918 58.5121 1.58031 59.0006 2.18271 59.0006H57.7317C58.3341 59.0006 58.8226 58.5121 58.8226 57.9097V53.0427C58.8226 48.6432 57.1232 44.5064 54.0373 41.3939ZM56.6408 56.8188H3.27362V53.0427C3.27362 49.2358 4.77569 45.6463 7.50296 42.9358C10.2279 40.2277 13.8312 38.7362 17.6492 38.7362H19.1984C21.5311 41.6108 25.0742 43.3108 28.787 43.3108H31.1275C34.8403 43.3108 38.3835 41.6108 40.7161 38.7362H42.4296C50.2657 38.7362 56.6409 45.1541 56.6409 53.0428V56.8188H56.6408Z"
        fill="#272937" />
    <path
        d="M10.5169 10.005L16.4732 12.1609V18.3677C16.4732 18.4737 16.4812 18.5766 16.4942 18.6779V24.4525C16.4942 31.2547 22.0283 36.7887 28.8304 36.7887H31.1735C37.9757 36.7887 43.5097 31.2546 43.5097 24.4525V18.5149C43.5097 18.2731 43.5012 18.0207 43.4857 17.7645V12.1584L45.1288 11.5598V16.8336C45.1288 17.436 45.6173 17.9245 46.2197 17.9245C46.8221 17.9245 47.3106 17.436 47.3106 16.8336V10.765L49.3989 10.0042C49.6094 9.92758 49.7913 9.78799 49.9198 9.60439C50.0482 9.42079 50.117 9.20208 50.1168 8.978C50.1165 8.75393 50.0473 8.53537 49.9184 8.35204C49.7896 8.16871 49.6074 8.02951 49.3967 7.95337L30.266 1.02937C30.0253 0.942264 29.7617 0.942573 29.5213 1.03024L10.5148 7.95424C10.3042 8.03082 10.1224 8.17039 9.9939 8.35399C9.86544 8.53759 9.79665 8.75629 9.79688 8.98037C9.7971 9.20444 9.86634 9.42301 9.99517 9.60634C10.124 9.78968 10.3062 9.92889 10.5169 10.005ZM29.6477 16.9294C29.7677 16.9727 29.8933 16.9945 30.019 16.9945C30.0229 16.9945 30.0268 16.9939 30.0306 16.9939C30.1616 16.9954 30.2918 16.9733 30.4149 16.9285L41.3038 12.9616V18.3676C41.3038 18.5805 40.7759 19.3542 38.4303 20.0933C36.1885 20.7997 33.1872 21.1887 29.9793 21.1887C29.7833 21.1887 29.5883 21.1872 29.3941 21.1842C29.2844 21.1826 29.1755 21.1795 29.0663 21.177C28.9839 21.1751 28.9012 21.1739 28.8193 21.1714C28.6726 21.167 28.5268 21.1611 28.3813 21.1551C28.3386 21.1534 28.2959 21.1522 28.2534 21.1502C28.0862 21.1428 27.9201 21.1338 27.7547 21.1242C27.7353 21.123 27.7156 21.1222 27.6961 21.1211C27.5163 21.1102 27.3375 21.0982 27.1599 21.0847L27.1473 21.0839C26.2349 21.0149 25.3549 20.9127 24.5237 20.7792C24.3641 20.7534 24.2047 20.7263 24.0455 20.6977L24.0063 20.6908C23.6776 20.6312 23.3501 20.5649 23.0241 20.4918C22.768 20.4341 22.5131 20.3716 22.2594 20.3042C22.2034 20.2891 22.1476 20.2741 22.0924 20.2588C22.0077 20.2353 21.9238 20.2114 21.8408 20.1871C21.7421 20.1582 21.6434 20.1293 21.5474 20.0991C20.2108 19.6794 19.4001 19.2168 18.9897 18.8529C18.7874 18.6702 18.6936 18.5217 18.665 18.4264C18.6626 18.4173 18.6601 18.4082 18.6585 18.3995L18.6577 18.3962C18.6559 18.3868 18.6549 18.3772 18.6548 18.3676V12.9506L29.6477 16.9294ZM41.3279 24.4523C41.3279 30.0514 36.7726 34.6067 31.1735 34.6067H28.8304C23.2313 34.6067 18.676 30.0514 18.676 24.4523V21.2698C19.1381 21.5232 19.6742 21.758 20.2799 21.9744L20.3213 21.9892C20.3738 22.0079 20.4264 22.0265 20.48 22.045C20.57 22.0758 20.6593 22.1055 20.7482 22.1343L20.7952 22.1494L20.8726 22.1743C20.9054 22.1847 20.94 22.1943 20.9732 22.2045C21.025 22.2204 21.0755 22.2367 21.1282 22.2525C21.1593 22.2617 21.192 22.2703 21.2233 22.2796C21.3778 22.3248 21.5329 22.3682 21.6885 22.4097C21.8466 22.4516 22.0051 22.492 22.1641 22.5306C22.3257 22.5699 22.4878 22.6073 22.6503 22.6429C22.7687 22.669 22.8878 22.6945 23.0084 22.719C23.0544 22.7285 23.1009 22.7377 23.1471 22.747C23.2785 22.7732 23.4109 22.7987 23.5449 22.8232C23.5817 22.83 23.619 22.8365 23.6561 22.8433C23.7999 22.869 23.9448 22.8941 24.0914 22.9181C24.12 22.9228 24.1487 22.9273 24.1775 22.9319C24.3324 22.9569 24.4886 22.9809 24.6465 23.0037L24.7127 23.013C24.8772 23.0365 25.0426 23.059 25.2098 23.0801C25.227 23.0824 25.2443 23.0843 25.2616 23.0865C25.4332 23.108 25.6059 23.1285 25.7805 23.1477C25.7958 23.1494 25.8113 23.1508 25.8268 23.1525C26.0025 23.1715 26.1791 23.1894 26.3572 23.206C26.3756 23.2078 26.3941 23.2092 26.4124 23.2109C26.5877 23.2269 26.7639 23.242 26.9415 23.2557C26.9666 23.2576 26.9922 23.2591 27.0173 23.261C27.1885 23.2739 27.3603 23.286 27.5333 23.2966C27.5704 23.2989 27.608 23.3005 27.6449 23.3027C27.8066 23.3122 27.9687 23.3211 28.1319 23.3285C28.1912 23.3313 28.2509 23.3331 28.3104 23.3355C28.453 23.3414 28.5952 23.3473 28.7389 23.3517C28.8361 23.3546 28.9341 23.3562 29.0318 23.3584C29.1393 23.3608 29.2464 23.3641 29.3543 23.3656C29.562 23.3688 29.7704 23.3705 29.9795 23.3705C33.4038 23.3705 36.6381 22.9456 39.0863 22.1742C39.1904 22.1415 39.2941 22.1075 39.3975 22.0725C39.4778 22.0453 39.5585 22.0175 39.6394 21.9886L39.6522 21.9841C39.7373 21.9536 39.8221 21.9223 39.9065 21.8901L39.967 21.8669C40.0535 21.8337 40.1397 21.7995 40.2255 21.7644C40.3298 21.7214 40.4335 21.6769 40.5366 21.6311C40.6105 21.5984 40.684 21.5648 40.757 21.5303C40.7688 21.5247 40.7808 21.5194 40.7925 21.5138C40.8744 21.4747 40.9558 21.4345 41.0366 21.393C41.0549 21.3837 41.073 21.3741 41.0914 21.3646C41.1611 21.3284 41.2303 21.2912 41.299 21.2532C41.3086 21.2478 41.3185 21.2429 41.328 21.2376V24.4523H41.3279ZM29.8958 3.21577L45.4988 8.86308L30.0252 7.89053C29.4253 7.85148 28.9058 8.30955 28.8681 8.91097C28.8302 9.51228 29.2871 10.0303 29.8885 10.0681L40.9428 10.7629L30.029 14.7388L17.9353 10.3614C17.8949 10.3468 17.8538 10.3349 17.8125 10.3252L14.0843 8.97588L29.8958 3.21577Z"
        fill="#272937" />
    <path
        d="M46.2198 18.5638C45.6174 18.5638 45.1289 19.0523 45.1289 19.6547V22.1138C45.1289 22.7162 45.6174 23.2047 46.2198 23.2047C46.8222 23.2047 47.3107 22.7162 47.3107 22.1138V19.6547C47.3107 19.0523 46.8222 18.5638 46.2198 18.5638Z"
        fill="#272937" />
</svg>
    