<svg width="60" height="60" viewBox="0 0 60 60" fill="none" xmlns="http://www.w3.org/2000/svg">
    <g clip-path="url(#clip0_344_176)">
        <path
            d="M15.6992 27.9694C17.3265 27.9674 18.8866 27.3199 20.0371 26.1691C21.1876 25.0182 21.8346 23.4579 21.8361 21.8306C21.8346 20.203 21.1877 18.6423 20.0373 17.4909C18.8869 16.3394 17.3269 15.6911 15.6992 15.6881C14.0711 15.6906 12.5103 16.3386 11.3592 17.4901C10.2081 18.6415 9.56058 20.2025 9.55859 21.8306C9.56058 23.4584 10.2082 25.019 11.3594 26.1698C12.5107 27.3207 14.0714 27.9679 15.6992 27.9694ZM15.6992 17.5631C16.8086 17.596 17.8616 18.0599 18.6347 18.8562C19.4078 19.6526 19.8402 20.7188 19.8402 21.8288C19.8402 22.9387 19.4078 24.0049 18.6347 24.8013C17.8616 25.5976 16.8086 26.0615 15.6992 26.0944C14.5685 26.0934 13.4844 25.6439 12.6847 24.8446C11.885 24.0452 11.4351 22.9613 11.4336 21.8306C11.4346 20.6994 11.8843 19.6148 12.6839 18.8148C13.4836 18.0148 14.568 17.5646 15.6992 17.5631ZM40.108 23.5125H47.6586C47.9072 23.5125 48.1457 23.4137 48.3215 23.2379C48.4973 23.0621 48.5961 22.8236 48.5961 22.575C48.5961 22.3264 48.4973 22.0879 48.3215 21.9121C48.1457 21.7363 47.9072 21.6375 47.6586 21.6375H40.108C39.8593 21.6375 39.6209 21.7363 39.4451 21.9121C39.2692 22.0879 39.1705 22.3264 39.1705 22.575C39.1705 22.8236 39.2692 23.0621 39.4451 23.2379C39.6209 23.4137 39.8593 23.5125 40.108 23.5125Z"
            fill="#272937" />
        <path
            d="M59.1092 45.8962H57.9186V9.02812C57.9186 8.77948 57.8198 8.54102 57.644 8.36521C57.4682 8.18939 57.2297 8.09062 56.9811 8.09062H3.02047C2.77183 8.09062 2.53337 8.18939 2.35756 8.36521C2.18174 8.54102 2.08297 8.77948 2.08297 9.02812V45.8962H0.886719C0.638078 45.8962 0.399622 45.995 0.223806 46.1708C0.0479908 46.3466 -0.0507812 46.5851 -0.0507812 46.8337V50.9719C-0.0507812 51.2205 0.0479908 51.459 0.223806 51.6348C0.399622 51.8106 0.638078 51.9094 0.886719 51.9094H59.1111C59.3597 51.9094 59.5982 51.8106 59.774 51.6348C59.9498 51.459 60.0486 51.2205 60.0486 50.9719V46.8337C60.0486 46.7105 60.0243 46.5884 59.977 46.4745C59.9298 46.3607 59.8606 46.2572 59.7733 46.1702C59.6861 46.0831 59.5825 46.0141 59.4686 45.9671C59.3546 45.9201 59.2325 45.896 59.1092 45.8962ZM3.95797 9.96562H56.0436V45.8962H23.698V37.5975L29.1523 39.4331C29.3094 39.4861 29.4777 39.4965 29.6401 39.4632C29.8025 39.4299 29.9531 39.3542 30.0767 39.2437L36.7517 33.2681L38.8573 32.8969C39.0879 32.8569 39.295 32.7318 39.4377 32.5464C39.5804 32.361 39.6483 32.1287 39.628 31.8956L39.2098 26.9531C39.1901 26.719 39.0832 26.5009 38.9103 26.3418C38.7374 26.1828 38.511 26.0945 38.2761 26.0944H37.7492L38.5405 22.7944C38.5984 22.5524 38.5579 22.2974 38.4278 22.0854C38.2976 21.8733 38.0886 21.7217 37.8467 21.6637C37.6048 21.6058 37.3498 21.6464 37.1377 21.7765C36.9257 21.9066 36.774 22.1156 36.7161 22.3575L35.9623 25.4962L35.7373 25.3425C35.6115 25.2585 35.4674 25.2058 35.317 25.1888C35.1666 25.1719 35.0144 25.1911 34.873 25.245C34.7319 25.3001 34.6061 25.3883 34.5063 25.5022C34.4064 25.6161 34.3354 25.7523 34.2992 25.8994L33.7255 28.2825L28.5298 32.4712L22.7886 28.4194C22.6308 28.3076 22.442 28.248 22.2486 28.2487H10.4342C9.44797 28.2487 8.84984 28.68 8.52172 29.0419C7.66297 29.9925 7.77922 31.4006 7.78859 31.4644V45.9H3.95797V9.96562ZM1.82422 47.7712H7.79422V50.0344H1.82422V47.7712ZM9.66734 50.0344V46.83L9.66172 31.3669C9.64297 31.1775 9.66734 30.5719 9.91672 30.2981C9.95984 30.2512 10.0742 30.1237 10.4923 30.1237H21.9523L28.0273 34.4119C28.194 34.5291 28.3943 34.5889 28.598 34.5822C28.8017 34.5754 28.9976 34.5025 29.1561 34.3744L35.1505 29.5425C35.3112 29.4123 35.4251 29.2333 35.4748 29.0325L35.8067 27.6544L36.0336 27.8081C36.0486 27.8175 36.0673 27.8137 36.0786 27.8231C36.1611 27.8719 36.2436 27.9206 36.3411 27.9431C36.4124 27.96 36.4853 27.9689 36.5586 27.9694H37.4136L37.6873 31.2L36.163 31.47C35.9907 31.5006 35.8304 31.5785 35.6998 31.695L29.2348 37.485L23.0605 35.4075C22.9196 35.3598 22.7695 35.3464 22.6224 35.3683C22.4754 35.3903 22.3357 35.4469 22.2149 35.5336C22.0941 35.6203 21.9957 35.7345 21.9279 35.8668C21.8601 35.9991 21.8247 36.1457 21.8248 36.2944V50.0362H9.66734V50.0344ZM58.1717 50.0344H23.698V47.7712H58.1736L58.1717 50.0344Z"
            fill="#272937" />
    </g>
    <defs>
        <clipPath id="clip0_344_176">
            <rect width="60" height="60" fill="white" />
        </clipPath>
    </defs>
</svg>
    